<mxfile host="app.diagrams.net" agent="Mozilla/5.0 (X11; Ubuntu; Linux x86_64; rv:136.0) Gecko/20100101 Firefox/136.0" version="26.1.1">
  <diagram id="Gqcqo_hZN__cGRgvZ7Pa" name="Page-1">
    <mxGraphModel dx="1434" dy="822" grid="1" gridSize="10" guides="1" tooltips="1" connect="1" arrows="1" fold="1" page="1" pageScale="1" pageWidth="827" pageHeight="1169" background="#ffffff" math="0" shadow="0">
      <root>
        <mxCell id="KhpNlNvxDwqMAziko4fs-0" />
        <mxCell id="KhpNlNvxDwqMAziko4fs-1" parent="KhpNlNvxDwqMAziko4fs-0" />
        <mxCell id="KhpNlNvxDwqMAziko4fs-2" value="" style="group" parent="KhpNlNvxDwqMAziko4fs-1" vertex="1" connectable="0">
          <mxGeometry x="94" y="310" width="596" height="149.24" as="geometry" />
        </mxCell>
        <mxCell id="KhpNlNvxDwqMAziko4fs-3" value="" style="shape=image;verticalLabelPosition=bottom;labelBackgroundColor=#ffffff;verticalAlign=top;aspect=fixed;imageAspect=0;image=data:image/svg+xml,PHN2ZyB4bWxucz0iaHR0cDovL3d3dy53My5vcmcvMjAwMC9zdmciIHhtbG5zOnhsaW5rPSJodHRwOi8vd3d3LnczLm9yZy8xOTk5L3hsaW5rIiB3aWR0aD0iMjBweCIgaGVpZ2h0PSIxOHB4IiB2aWV3Qm94PSIwIDAgMjAgMTgiIHZlcnNpb249IjEuMSI+JiN4YTsgICAgPCEtLSBHZW5lcmF0b3I6IFNrZXRjaCA1OCAoODQ2NjMpIC0gaHR0cHM6Ly9za2V0Y2guY29tIC0tPiYjeGE7ICAgIDx0aXRsZT5Db21iaW5lZCBTaGFwZTwvdGl0bGU+JiN4YTsgICAgPGRlc2M+Q3JlYXRlZCB3aXRoIFNrZXRjaC48L2Rlc2M+JiN4YTsgICAgPGcgaWQ9IlN0eWxlZ3VpZGUtJmFtcDstVHlwZXBhZ2VzIiBzdHJva2U9Im5vbmUiIHN0cm9rZS13aWR0aD0iMSIgZmlsbD0ibm9uZSIgZmlsbC1ydWxlPSJldmVub2RkIj4mI3hhOyAgICAgICAgPGcgaWQ9Ikljb25zIiB0cmFuc2Zvcm09InRyYW5zbGF0ZSgtODg4LjAwMDAwMCwgLTQ3Ny4wMDAwMDApIiBmaWxsPSIjNjYzQ0RDIj4mI3hhOyAgICAgICAgICAgIDxwYXRoIGQ9Ik04OTIsNDgzIEw4OTQsNDgzIEw4OTQsNDkxIEw4OTcsNDkxIEw4OTcsNDgzIEw4OTksNDgzIEw4OTksNDkxIEw5MDIsNDkxIEw5MDIsNDgzIEw5MDQsNDgzIEw5MDQsNDkxIEw5MDYsNDkxIEw5MDYsNDkzIEw5MDgsNDkzIEw5MDgsNDk1IEw4ODgsNDk1IEw4ODgsNDkzIEw4OTAsNDkzIEw4OTAsNDkxIEw4OTIsNDkxIEw4OTIsNDgzIFogTTg5OCw0NzcgQzkwMS44MjQzMzQsNDc3IDkwNS4wNTg3NzcsNDc5LjUyNTYyMyA5MDYuMTI2Mzc1LDQ4Mi45OTk5MTQgTDg4OS44NzM2MjUsNDgyLjk5OTkxNCBDODkwLjk0MTIyMyw0NzkuNTI1NjIzIDg5NC4xNzU2NjYsNDc3IDg5OCw0NzcgWiIgaWQ9IkNvbWJpbmVkLVNoYXBlIi8+JiN4YTsgICAgICAgIDwvZz4mI3hhOyAgICA8L2c+JiN4YTs8L3N2Zz4=;" parent="KhpNlNvxDwqMAziko4fs-2" vertex="1">
          <mxGeometry x="275.65000000000003" y="69.9985959046454" width="18.316789931221223" height="16.485110938099094" as="geometry" />
        </mxCell>
        <mxCell id="OPiwrHlcYEh3rDxegb-4-25" style="edgeStyle=orthogonalEdgeStyle;rounded=0;orthogonalLoop=1;jettySize=auto;html=1;exitX=0.703;exitY=0;exitDx=0;exitDy=0;entryX=0.5;entryY=1;entryDx=0;entryDy=0;endArrow=classic;endFill=1;exitPerimeter=0;startArrow=none;startFill=0;dashed=1;" parent="KhpNlNvxDwqMAziko4fs-2" source="KhpNlNvxDwqMAziko4fs-4" target="OPiwrHlcYEh3rDxegb-4-21" edge="1">
          <mxGeometry relative="1" as="geometry" />
        </mxCell>
        <mxCell id="KhpNlNvxDwqMAziko4fs-4" value="&lt;font color=&quot;#663cdc&quot;&gt;&amp;nbsp; &amp;nbsp; &amp;nbsp; &amp;nbsp; &amp;nbsp; &amp;nbsp; &lt;br&gt;&lt;br&gt;Security&lt;br&gt;Server&lt;/font&gt;" style="rounded=1;whiteSpace=wrap;html=1;strokeColor=#663CDC;strokeWidth=2;fillColor=none;" parent="KhpNlNvxDwqMAziko4fs-2" vertex="1">
          <mxGeometry x="-13.0375" y="50" width="596" height="79.24000000000002" as="geometry" />
        </mxCell>
        <mxCell id="OPiwrHlcYEh3rDxegb-4-16" value="&lt;font color=&quot;#ffffff&quot;&gt;&lt;span&gt;&lt;br&gt;&lt;/span&gt;&lt;/font&gt;" style="ellipse;whiteSpace=wrap;html=1;aspect=fixed;fillColor=#663CDC;strokeColor=none;gradientDirection=north;" parent="KhpNlNvxDwqMAziko4fs-2" vertex="1">
          <mxGeometry x="436" width="20" height="20" as="geometry" />
        </mxCell>
        <mxCell id="OPiwrHlcYEh3rDxegb-4-21" value="&lt;font color=&quot;#ffffff&quot;&gt;&lt;span&gt;&lt;br&gt;&lt;/span&gt;&lt;/font&gt;" style="ellipse;whiteSpace=wrap;html=1;aspect=fixed;fillColor=#663CDC;strokeColor=none;gradientDirection=north;" parent="KhpNlNvxDwqMAziko4fs-2" vertex="1">
          <mxGeometry x="396" width="20" height="20" as="geometry" />
        </mxCell>
        <mxCell id="OPiwrHlcYEh3rDxegb-4-26" style="edgeStyle=orthogonalEdgeStyle;rounded=0;orthogonalLoop=1;jettySize=auto;html=1;exitX=0.703;exitY=0;exitDx=0;exitDy=0;entryX=0.5;entryY=1;entryDx=0;entryDy=0;endArrow=classic;endFill=1;exitPerimeter=0;startArrow=none;startFill=0;dashed=1;" parent="KhpNlNvxDwqMAziko4fs-2" edge="1">
          <mxGeometry relative="1" as="geometry">
            <mxPoint x="445.6505000000002" y="50.000000000000114" as="sourcePoint" />
            <mxPoint x="445.70000000000005" y="20.000000000000114" as="targetPoint" />
          </mxGeometry>
        </mxCell>
        <mxCell id="OPiwrHlcYEh3rDxegb-4-27" style="edgeStyle=orthogonalEdgeStyle;rounded=0;orthogonalLoop=1;jettySize=auto;html=1;exitX=0.703;exitY=0;exitDx=0;exitDy=0;entryX=0.5;entryY=1;entryDx=0;entryDy=0;endArrow=classic;endFill=1;exitPerimeter=0;startArrow=none;startFill=0;dashed=1;" parent="KhpNlNvxDwqMAziko4fs-2" target="OPiwrHlcYEh3rDxegb-4-28" edge="1">
          <mxGeometry relative="1" as="geometry">
            <mxPoint x="145.60050000000012" y="51.000000000000114" as="sourcePoint" />
          </mxGeometry>
        </mxCell>
        <mxCell id="OPiwrHlcYEh3rDxegb-4-28" value="&lt;font color=&quot;#ffffff&quot;&gt;&lt;span&gt;&lt;br&gt;&lt;/span&gt;&lt;/font&gt;" style="ellipse;whiteSpace=wrap;html=1;aspect=fixed;strokeColor=none;gradientDirection=north;fillColor=#948DA8;" parent="KhpNlNvxDwqMAziko4fs-2" vertex="1">
          <mxGeometry x="135.64999999999998" y="1" width="20" height="20" as="geometry" />
        </mxCell>
        <mxCell id="OPiwrHlcYEh3rDxegb-4-29" style="edgeStyle=orthogonalEdgeStyle;rounded=0;orthogonalLoop=1;jettySize=auto;html=1;exitX=0.703;exitY=0;exitDx=0;exitDy=0;entryX=0.5;entryY=1;entryDx=0;entryDy=0;endArrow=classic;endFill=1;exitPerimeter=0;startArrow=none;startFill=0;dashed=1;" parent="KhpNlNvxDwqMAziko4fs-2" target="OPiwrHlcYEh3rDxegb-4-30" edge="1">
          <mxGeometry relative="1" as="geometry">
            <mxPoint x="25.950500000000147" y="50.000000000000114" as="sourcePoint" />
          </mxGeometry>
        </mxCell>
        <mxCell id="OPiwrHlcYEh3rDxegb-4-30" value="&lt;font color=&quot;#ffffff&quot;&gt;&lt;span&gt;&lt;br&gt;&lt;/span&gt;&lt;/font&gt;" style="ellipse;whiteSpace=wrap;html=1;aspect=fixed;strokeColor=none;gradientDirection=north;fillColor=#948DA8;" parent="KhpNlNvxDwqMAziko4fs-2" vertex="1">
          <mxGeometry x="16" width="20" height="20" as="geometry" />
        </mxCell>
        <mxCell id="OPiwrHlcYEh3rDxegb-4-37" value="&lt;font color=&quot;#ffffff&quot;&gt;&lt;span&gt;&lt;br&gt;&lt;/span&gt;&lt;/font&gt;" style="ellipse;whiteSpace=wrap;html=1;aspect=fixed;fillColor=#663CDC;strokeColor=none;gradientDirection=north;" parent="KhpNlNvxDwqMAziko4fs-2" vertex="1">
          <mxGeometry x="255.99999999999997" y="-0.76" width="20" height="20" as="geometry" />
        </mxCell>
        <mxCell id="OPiwrHlcYEh3rDxegb-4-38" style="edgeStyle=orthogonalEdgeStyle;rounded=0;orthogonalLoop=1;jettySize=auto;html=1;exitX=0.25;exitY=1;exitDx=0;exitDy=0;entryX=0.5;entryY=0;entryDx=0;entryDy=0;endArrow=none;endFill=0;" parent="KhpNlNvxDwqMAziko4fs-2" edge="1">
          <mxGeometry relative="1" as="geometry">
            <mxPoint x="265.65999999999985" y="19.243750000000194" as="sourcePoint" />
            <mxPoint x="265.65999999999985" y="49.99999999999988" as="targetPoint" />
          </mxGeometry>
        </mxCell>
        <mxCell id="OPiwrHlcYEh3rDxegb-4-67" style="edgeStyle=orthogonalEdgeStyle;rounded=0;orthogonalLoop=1;jettySize=auto;html=1;exitX=0.25;exitY=1;exitDx=0;exitDy=0;entryX=0.5;entryY=0;entryDx=0;entryDy=0;endArrow=none;endFill=0;" parent="KhpNlNvxDwqMAziko4fs-2" edge="1">
          <mxGeometry relative="1" as="geometry">
            <mxPoint x="25.659999999999854" y="129.2437500000002" as="sourcePoint" />
            <mxPoint x="25.659999999999854" y="159.99999999999977" as="targetPoint" />
          </mxGeometry>
        </mxCell>
        <mxCell id="OPiwrHlcYEh3rDxegb-4-72" style="edgeStyle=orthogonalEdgeStyle;rounded=0;orthogonalLoop=1;jettySize=auto;html=1;exitX=0.25;exitY=1;exitDx=0;exitDy=0;entryX=0.5;entryY=0;entryDx=0;entryDy=0;endArrow=none;endFill=0;" parent="KhpNlNvxDwqMAziko4fs-2" edge="1">
          <mxGeometry relative="1" as="geometry">
            <mxPoint x="106" y="129.24375000000032" as="sourcePoint" />
            <mxPoint x="106" y="159.99999999999977" as="targetPoint" />
          </mxGeometry>
        </mxCell>
        <mxCell id="OPiwrHlcYEh3rDxegb-4-71" style="edgeStyle=orthogonalEdgeStyle;rounded=0;orthogonalLoop=1;jettySize=auto;html=1;exitX=0.25;exitY=1;exitDx=0;exitDy=0;entryX=0.5;entryY=0;entryDx=0;entryDy=0;endArrow=none;endFill=0;" parent="KhpNlNvxDwqMAziko4fs-2" edge="1">
          <mxGeometry relative="1" as="geometry">
            <mxPoint x="186" y="129.24375000000032" as="sourcePoint" />
            <mxPoint x="186" y="159.99999999999977" as="targetPoint" />
          </mxGeometry>
        </mxCell>
        <mxCell id="OPiwrHlcYEh3rDxegb-4-70" style="edgeStyle=orthogonalEdgeStyle;rounded=0;orthogonalLoop=1;jettySize=auto;html=1;exitX=0.25;exitY=1;exitDx=0;exitDy=0;entryX=0.5;entryY=0;entryDx=0;entryDy=0;endArrow=none;endFill=0;" parent="KhpNlNvxDwqMAziko4fs-2" edge="1">
          <mxGeometry relative="1" as="geometry">
            <mxPoint x="265.31" y="129.24375000000032" as="sourcePoint" />
            <mxPoint x="265.31" y="159.99999999999977" as="targetPoint" />
          </mxGeometry>
        </mxCell>
        <mxCell id="OPiwrHlcYEh3rDxegb-4-69" style="edgeStyle=orthogonalEdgeStyle;rounded=0;orthogonalLoop=1;jettySize=auto;html=1;exitX=0.25;exitY=1;exitDx=0;exitDy=0;entryX=0.5;entryY=0;entryDx=0;entryDy=0;endArrow=none;endFill=0;" parent="KhpNlNvxDwqMAziko4fs-2" edge="1">
          <mxGeometry relative="1" as="geometry">
            <mxPoint x="346" y="129.24375000000032" as="sourcePoint" />
            <mxPoint x="346" y="159.99999999999977" as="targetPoint" />
          </mxGeometry>
        </mxCell>
        <mxCell id="OPiwrHlcYEh3rDxegb-4-68" style="edgeStyle=orthogonalEdgeStyle;rounded=0;orthogonalLoop=1;jettySize=auto;html=1;exitX=0.25;exitY=1;exitDx=0;exitDy=0;entryX=0.5;entryY=0;entryDx=0;entryDy=0;endArrow=none;endFill=0;" parent="KhpNlNvxDwqMAziko4fs-2" edge="1">
          <mxGeometry relative="1" as="geometry">
            <mxPoint x="426" y="129.24375000000032" as="sourcePoint" />
            <mxPoint x="426" y="159.99999999999977" as="targetPoint" />
          </mxGeometry>
        </mxCell>
        <mxCell id="OPiwrHlcYEh3rDxegb-4-73" style="edgeStyle=orthogonalEdgeStyle;rounded=0;orthogonalLoop=1;jettySize=auto;html=1;exitX=0.25;exitY=1;exitDx=0;exitDy=0;entryX=0.5;entryY=0;entryDx=0;entryDy=0;endArrow=none;endFill=0;" parent="KhpNlNvxDwqMAziko4fs-2" edge="1">
          <mxGeometry relative="1" as="geometry">
            <mxPoint x="506" y="129.24375000000032" as="sourcePoint" />
            <mxPoint x="506" y="159.99999999999977" as="targetPoint" />
          </mxGeometry>
        </mxCell>
        <mxCell id="OPiwrHlcYEh3rDxegb-4-90" value="" style="shape=image;verticalLabelPosition=bottom;labelBackgroundColor=#ffffff;verticalAlign=top;aspect=fixed;imageAspect=0;image=data:image/png,iVBORw0KGgoAAAANSUhEUgAAB9EAAAOZCAYAAACp4tDwAAAACXBIWXMAAAsSAAALEgHS3X78AAAgAElEQVR4AezdX4hkWZ7Q8VPD7O68VesiPvhQpeHDirjdIr4shl3zIgoLlQuLuPpQuboQCErn4sAMgnS1L86A0jm+rCFCVz+5Pk32iyiIk0UoLiw4WYviLhhs1ou4oNIJgouLm3JnftkdFRX5/95zzz3n84Gkq6KzMiNuRNyIuN97znlwfn6eAAAAAAAAAICUvmIbAAAAAAAAAMCPiOgAAAAAAAAAEER0AAAAAAAAAAgiOgAAAAAAAAAEER0AAAAAAAAAgogOAAAAAAAAAEFEBwAAAAAAAIAgogMAAAAAAABAENEBAAAAAAAAIIjoAAAAAAAAABBEdAAAAAAAAAAIIjoAAAAAAAAABBEdAAAAAAAAAIKIDgAAAAAAAABBRAcAAAAAAACAIKIDAAAAAAAAQBDRAQAAAAAAACCI6AAAAAAAAAAQRHQAAAAAAAAACCI6AAAAAAAAAAQRHQAAAAAAAACCiA4AAAAAAAAAQUQHAAAAAAAAgCCiAwAAAAAAAEAQ0QEAAAAAAAAgiOgAAAAAAAAAEER0AAAAAAAAAAgiOgAAAAAAAAAEER0AAAAAAAAAgogOAAAAAAAAAEFEBwAAAAAAAIAgogMAAAAAAABAENEBAAAAAAAAIIjoAAAAAAAAABBEdAAAAAAAAAAIIjoAAAAAAAAABBEdAAAAAAAAAIKIDgAAAAAAAABBRAcAAAAAAACAIKIDAAAAAAAAQBDRAQAAAAAAACCI6AAAAAAAAAAQRHQAAAAAAAAACCI6AAAAAAAAAAQRHQAAAAAAAACCiA4AAAAAAAAAQUQHAAAAAAAAgCCiAwAAAAAAAEAQ0QEAAAAAAAAgiOgAAAAAAAAAEER0AAAAAAAAAAgiOgAAAAAAAAAEER0AAAAAAAAAgogOAAAAAAAAAEFEBwAAAAAAAIAgogMAAAAAAABAENEBAAAAAAAAIIjoAAAAAAAAABBEdAAAAAAAAAAIIjoAAAAAAAAABBEdAAAAAAAAAIKIDgAAAAAAAABBRAcAAAAAAACAIKIDAAAAAAAAQBDRAQAAAAAAACCI6AAAAAAAAAAQRHQAAAAAAAAACCI6AAAAAAAAAAQRHQAAAAAAAACCiA4AAAAAAAAAQUQHAAAAAAAAgCCiAwAAAAAAAEAQ0QEAAAAAAAAgiOgAAAAAAAAAEER0AAAAAAAAAAgiOgAAAAAAAAAEER0AAAAAAAAAgogOAAAAAAAAAEFEBwAAAAAAAIAgogMAAAAAAABAENEBAAAAAAAAIIjoAAAAAAAAABBEdAAAAAAAAAAIIjoAAAAAAAAABBEdAAAAAAAAAIKIDgAAAAAAAABBRAcAAAAAAACAIKIDAAAAAAAAQBDRAQAAAAAAACCI6AAAAAAAAAAQRHQAAAAAAAAACCI6AAAAAAAAAAQRHQAAAAAAAACCiA4AAAAAAAAAQUQHAAAAAAAAgCCiAwAAAAAAAEAQ0QEAAAAAAAAgiOgAAAAAAAAAEER0AAAAAAAAAAgiOgAAAAAAAAAEER0AAAAAAAAAgogOAAAAAAAAAEFEBwAAAAAAAIAgogMAAAAAAABAENEBAAAAAAAAIIjoAAAAAAAAABBEdAAAAAAAAAAIIjoAAAAAAAAABBEdAAAAAAAAAIKIDgAAAAAAAABBRAcAAAAAAACAIKIDAAAAAAAAQBDRAQAAAAAAACCI6AAAAAAAAAAQRHQAAAAAAAAACCI6AAAAAAAAAAQRHQAAAAAAAACCiA4AAAAAAAAAQUQHAAAAAAAAgCCiAwAAAAAAAEAQ0QEAAAAAAAAgiOgAAAAAAAAAEER0AAAAAAAAAAgiOgAAAAAAAAAEER0AAAAAAAAAgogOAAAAAAAAAEFEBwAAAAAAAIAgogMAAAAAAABAENEBAAAAAAAAIIjoAAAAAAAAABBEdAAAAAAAAAAIIjoAAAAAAAAABBEdAAAAAAAAAIKIDgAAAAAAAABBRAcAAAAAAACAIKIDAAAAAAAAQBDRAQAAAAAAACCI6AAAAAAAAAAQRHQAAAAAAAAACCI6AAAAAAAAAAQRHQAAAAAAAACCiA4AAAAAAAAAQUQHAAAAAAAAgCCiAwAAAAAAAEAQ0QEAAAAAAAAgiOgAAAAAAAAAEER0AAAAAAAAAAgiOgAAAAAAAAAEER0AAAAAAAAAgogOAAAAAAAAAEFEBwAAAAAAAIAgogMAAAAAAABAENEBAAAAAAAAIIjoAAAAAAAAABBEdAAAAAAAAAAIIjoAAAAAAAAABBEdAAAAAAAAAIKIDgAAAAAAAABBRAcAAAAAAACAIKIDAAAAAAAAQBDRAQAAAAAAACCI6AAAAAAAAAAQRHQAAAAAAAAACCI6AAAAAAAAAAQRHQAAAAAAAACCiA4AAAAAAAAAQUQHAAAAAAAAgCCiAwAAAAAAAEAQ0QEAAAAAAAAgiOgAAAAAAAAAEER0AAAAAAAAAAgiOgAAAAAAAAAEER0AAAAAAAAAgogOAAAAAAAAAEFEBwAAAAAAAIAgogMAAAAAAABAENEBAAAAAAAAIIjoAAAAAAAAABBEdAAAAAAAAAAIIjoAAAAAAAAABBEdAAAAAAAAAIKIDgAAAAAAAABBRAcAAAAAAACAIKIDAAAAAAAAQBDRAQAAAAAAACCI6AAAAAAAAAAQRHQAAAAAAAAACCI6AAAAAAAAAAQRHQAAAAAAAACCiA4AAAAAAAAAQUQHAAAAAAAAgCCiAwAAAAAAAEAQ0QEAAAAAAAAgiOgAAAAAAAAAEER0AAAAAAAAAAgiOgAAAAAAAAAEER0AAAAAAAAAgogOAAAAAAAAAEFEBwAAAAAAAIAgogMAAAAAAABAENEBAAAAAAAAIIjoAAAAAAAAABBEdAAAAAAAAAAIIjoAAAAAAAAABBEdAAAAAAAAAIKIDgAAAAAAAABBRAcAAAAAAACAIKIDAAAAAAAAQBDRAQAAAAAAACCI6AAAAAAAAAAQRHQAAAAAAAAACCI6AAAAAAAAAAQRHQAAAAAAAACCiA4AAAAAAAAAQUQHAAAAAAAAgCCiAwAAAAAAAEAQ0QEAAAAAAAAgiOgAAAAAAAAAEER0AAAAAAAAAAgiOgAAAAAAAAAEER0AAAAAAAAAgogOAAAAAAAAAEFEBwAAAAAAAIAgogMAAAAAAABAENEBAAAAAAAAIIjoAAAAAAAAABBEdAAAAAAAAAAIIjoAAAAAAAAABBEdAAAAAAAAAIKIDgAAAAAAAABBRAcAAAAAAACAIKIDAAAAAAAAQBDRAQAAAAAAACCI6AAAAAAAAAAQRHQAAAAAAAAACCI6AAAAAAAAAAQRHQAAAAAAAACCiA4AAAAAAAAAQUQHAAAAAAAAgCCiAwAAAAAAAEAQ0QEAAAAAAAAgiOgAAAAAAAAAEER0AAAAAAAAAAgiOgAAAAAAAAAEER0AAAAAAAAAgogOAAAAAAAAAEFEBwAAAAAAAIAgogMAAAAAAABAENEBAAAAAAAAIIjoAAAAAAAAABC+akMAJVjM149TSo93XJXPl6vZiTsJ2GSfAQAAAADAUB6cn5/buEA2i/n6nZTSk5TSe/HfLoI9uuHvf5lSOomv4+Vqduqeg7rdY59xtrG/sM8AAAAAAODGRHRgcBHB9lNKeyml93v8fa9TSkcppRdGnkI97DMAAAAAABiTiA4MZjFfP4kQ9izDVn6VUjpcrmYv3KMwTbHPOEgpPc1wA+wzAAAAAADYSUQHehch7HnPI0hvqhtp+lwYg+mwzwAAAAAAoCQiOtCbxXzdrVV8mGkU6XW6MLa/XM2O3cNQpthnvBgpnm+zzwAAAAAA4IdEdKAXi/n6IEaSPixsi34WYezzAq4LEOwzAAAAAAAolYgO3Mtivn4npXRUyEjSy5yllPaMMIXxTWSf8Tr2GScFXBcAAAAAADL7ig0O3NVivn4vpXRSeAxLMdL1+4v5er+A6wLNin3G6QT2GY9SSj+wzwAAAAAAaJOIDtzJYr5+klI6jtg0FZ8s5usX7nHIL4L0cYHTt1+l22cclnv1AAAAAAAYguncgVuLGPbJhLfcp8vVzAhTyMQ+AwAAAACAKRHRgVtZzNd7KaXvVbDVRDHIoIKAfsE+AwAAAACgEaZzB24s1jOuZTr0Z6Z2h2FVFNBT7DMOCrgeAAAAAAAMzEh04EYW8/U7KaXTia1nfBNGl8IAKgvom35uuZodlXN1AAAAAADom5HowE0dVRjQkxHp0L+KA3rnxWK+flzA9QAAAAAAYCAiOnCtxXz9PKX0fsVbSkiHnlQe0FOcTGR/AQAAAABQMdO5A1eKEZe/3chWMrU73EMDAX3TLy9Xs8Nyrg4AAAAAAH0xEh24TksjLo1IhztqLKB3npvWHQAAAACgTiI6cKnFfL1X+TTuuwjpcEsNBvQU07o/L+B6AAAAAADQMxEduEqrUxUL6XBDjQb0C8+MRgcAAAAAqI+IDuwUYexRw1tHSIdrNB7QLxiNDgAAAABQGREduMy+LSOkw2UE9C90+4l3CrkuAAAAAAD0QEQH3hLTE7e2FvplhHTYIqC/xUlHAAAAAAAVEdGBXQ5slTcI6RAE9J3sMwEAAAAAKiKiA7vs2SpvEdJpnoB+qUeL+fq9Qq8bAAAAAAC3JKIDb4ip3B/ZKjsJ6TRLQL/Wk8KvHwAAAAAANySiA9uMQr+akE5zBPQbse8EAAAAAKiEiA5sM5ryekI6zRDQb+z9iVxPAAAAAACuIaID26zrezNCOtUT0G/HuugAAAAAAHUQ0YFt1kO/OSGdagnod/J4gtcZAAAAAIAtIjrwBaMo70RIpzoC+p3ZhwIAAAAAVEBEBza9Y2vciZBONQR0AAAAAABaJ6IDm0T0uxPSmTwB/d6eTPz6AwAAAAA0L4nowBZTEd+PkM5kCegAAAAAAPAjIjpAv4R0JkdABwAAAACAL4noAP0T0pkMAR0AAAAAAN4kogObPrc1eiOkUzwBHQAAAAAA3iaiA5tObI1eCekUS0AfhBORAAAAAAAqIKIDDEtIpzgC+mCciAQAAAAAUAERHdh0amsMQkinGAI6AAAAAABcTUQHvrBczUT04QjpjE5AH9xx5bcPAAAAAKAJIjqw7aUtMhghndEI6Fk4EQkAAAAAoAIiOrDNmr7DEtLJTkDP4rXZPAAAAAAA6iCiA9tMRzw8IZ1sBPRs7DsBAAAAACohogPbhKA8hHQGJ6BnZd8JAAAAAFAJER14w3I1+zyl9MpWyUJIZzACenZHjd1eAAAAAIBqiejALoe2SjZCOr0T0LP7LE5AAgAAAACgAiI6sIsRlXkJ6fRGQB+FfSYAAAAAQEVEdOAtMaLyU1smKyGdexPQR3G2XM08dwEAAAAAKiKiA5d5bstkJ6RzZwL6aCx/AQAAAABQGREd2Gm5mp0ajT4KIZ1bE9BHcyaiAwAAAADUR0QHrmI0+jiEdG5MQB/VYSx/AQAAAABARR6cn5+7P4FLLebrbpTlB7bQKD5drmb7Dd5ubkhAH9Xr5Wr2uOHbDwAAAABQLSPRget0o9Ff20qjMCKdSwnoo3OCCwAAAABApUR04EoxVbFYNB4hnbcI6KP77nI1O258GwAAAAAAVEtEB64VsegjW2o0QjpfENBH92q5mh00vg0AAAAAAKomogM3slzNumndX9paoxHSEdDHd5ZS2mt9IwAAAAAA1E5EB26ji0evbLHRCOkNE9BH1wX0J8vV7LTx7QAAAAAAUD0RHbixWB/9iZA+KiG9QQJ6EfaXq9lJ6xsBAAAAAKAFIjpwK0J6EYT0hgjoRfjF5Wp21PpGAAAAAABohYgO3JqQXgQhvQECehG6gO65BgAAAADQEBEduBMhvQhCesUE9CII6AAAAAAADRLRgTsT0osgpFdIQC+CgA4AAAAA0CgRHbgXIb0IQnpFBPQiCOgAAAAAAA0T0YF7E9KLIKRXQEAvgoAOAAAAANA4ER3ohZBeBCF9wgT0IgjoAAAAAACI6EB/hPQiCOkTJKAXQUAHAAAAAOCHRHSgV0J6EYT0CRHQiyCgAwAAAADwBREd6J2QXgQhfQIE9CII6AAAAAAAvEFEBwYhpBdBSC+YgF4EAR0AAAAAgLeI6MBghPQiCOkFEtCLIKADAAAAALCTiA4MSkgvgpBeEAG9CAI6AAAAAACXEtGBwQnpRRDSCyCgF0FABwAAAADgSiI6kIWQXgQhfUQCehEEdAAAAAAAriWiA9kI6UUQ0kcgoBdBQAcAAAAA4EZEdCArIb0IQnpGAnoRBHQAAAAAAG5MRAeyE9KLIKRnIKAXQUAHAAAAAOBWRHRgFEJ6EYT0AQnoRRDQAQAAAAC4tQfn5+e2GtzDYr5+J2Lwe/HV/f1xSunRjp/aBeMuHp/G1/FyNTtuefvH9uu2wbsFXJ1WfbpczfZb3wh9EtCL0HxAX8zX78Xr0+N4feq8v+Nbz1JKJ/Hn43h9OlmuZic7vhcAAAAAoHoiOtxBhIn9iBN9xN8urnex52i5mp22dp8I6UUQ0nsioBehyYAe+9K9+Openx7e80d2cf0o9s9HMYMIAAAAAED1RHS4ocV8/TjC+f4lo8z70gX1w9aChZBeBCH9ngT0IjQX0BfzdRfMD1JKTwf8NRdB/dAIdQAAAACgdiI6XCPi+fNu/ejM2+osYvphKzFdSC+CkH5HAnoRmgro8Zh7PvCJXbu87H5v68uRAAAAAAD1EtHhEhF0uzjxwcjb6CxixeHI1yMLIb0IQvotCehFaCagx8jzFyPE821dTD8wMh0AAAAAqI2IDjss5uu9CBT3XU+2T9007/stxAohvQhC+g0J6EVoIqDHvvHFwNO238VHy9XseWHXCQAAAADgzkR02BCB4nCEqdtvo4lYIaQXQUi/hoBehFYC+pNYk7ykk7s2NXOiFwAAAABQPxEdwmK+fi9G+E0h2nZT6O7Vvla6kF4EIf0SAnoRWgno3YlTHxZwVa5zFtO7N7MuPQAAAABQJxEdvgzoxwWP8NuliVF/QnoRhPQtAnoRWgnoLwqfHWUX07sDAAAAAJMmotO8icewbtTfEyGdDIT0IKAXofqAHvu9bvr29wu4OndhnwEAAAAATJaITtMqiWFCOrk0H8UE9CK0EtBr2N81v88AAAAAAKbpK+43WhVTuB9WcPO7KeiP4/ZUK9Z/fxLT2DOOZzG1dJME9CII6NPyLNZzBwAAAACYFCPRadJivn6cUjqZ2Bro1zEinVyaG10qoBdBQJ+uJtavBwAAAADqYSQ6rTqqLKAnI9LJqKkR6QJ6EQT0aTus/bUJAAAAAKiLiE5zFvP1YcWjmIV0cmkipAvoRRDQp697bTISHQAAAACYDBGdpizm6y68flD5bRbSyaXqkC6gF0FAr8e71kcHAAAAAKZCRKc1rYyEE9LJpcqQLqAXQUCvz4emdQcAAAAApkBEpxmL+fogpfSooZsspJNLVSFdQC+CgF6vw8ZuLwAAAAAwQQ/Oz8/db1QvYsVphOXWnHWRebmandR8uxsOUiX5dLma7U/5BgjoRRDQ6/f15Wp23OhtBwAAAAAmwEh0WnHQaEBPRqST0aRHpAvoRRDQ22BtdAAAAACgaCI6rZj06NgeCOnkMsmQLqAXQUBvx/uL+fpJ49sAAAAAACiYiE71Io61tBb6ZYR0cplUSBfQiyCgt6f1k9sAAAAAgIKJ6LRgz738BSGdXCYR0gX0IgjobdqL7QIAAAAAUBwRnarFAfqn7uU3COnkUnRIF9CLIKC366GT3AAAAACAUono1M4B+t2EdHIpMqQL6EUQ0LEuOgAAAABQJBGd2jlAfzkhnVyKCukCehEEdJIT3QAAAACAUono1E5Ev5qQTi5FhHQBvQgCOhce1v76AwAAAABMk4hOtSJiPHIPX0tIJ5dRQ7qAXgQBnW0iOgAAAABQHBGdmjkwf3NCOrmMEtIF9CII6Ozy2FYBAAAAAEojolMzEf12hHRyyRrSBfQiCOhcxrIrAAAAAEBxRHRq9o5799aEdHLJEtIF9CII6AAAAAAATIqITs1E9LsR0sll0JAuoBdBQOc679tCAAAAAEBpRHRqZjr3uxPSyWWQkC6gF0FABwAAAABgkkR04DJCOrn0GtIF9CII6AAAAAAATJaIDlxFSCeXXkK6gF4EAR0AAAAAgEkT0YHrCOnkcq+QLqAXQUAHAAAAAGDyRHRqdure7Y2QTi53CukCehEEdAAAAAAAqiCiUzMRvV9COrncKqQL6EUQ0Lkr+1oAAAAAoDgiOnAbQjq53CikC+hFENC5j89tPQAAAACgNCI6NTt27w5CSCeXK0O6gF4EAZ37OrEFAQAAAIDSiOjUzHTuwxHSyWVnSBfQiyCg0wev1QAAAABAcUR0qrVczboD82fu4cEI6eTyRkgX0IsgoNMXI9EBAAAAgOI8OD8/d69QrcV8fZRSeuoeHlR3osKT5WpWdQgR1IrwadwHAvq4BHR6s1zNHtiaAAAAAEBpjESndtZFH54R6eTyTEAfnYBOnz6zNQEAAACAEono1O7IPZyFkA71E9DpmxPdAAAAAIAiiehULdZFFzzzENKhXgI6Q3CiGwAAAABQJBGdFhy6l7MR0qE+AjpD+CxOdAMAAAAAKI6ITgu6kW5n7ulshHSoh4DOUKp+XAEAAAAA0yaiU72InaaMzUtIh+kT0BnK6+Vq5nUZAAAAACiWiE4rnrunsxPSYboEdIbkNRkAAAAAKJqIThNi3dXvurezE9JhegR0hvS69scXAAAAADB9IjoteW5t9FEI6TAdAjpDO7CFAQAAAIDSieg0IyKnKWTHIaRD+QR0hvaZtdABAAAAgCkQ0WnKcjU7TCm9dK+PQkiHcgnoDK2bCWbfVgYAAAAApkBEp0V7pnUfjZAO5RHQyWE/9o0AAAAAAMUT0WlOHMTfc8+PRkiHcgjo5PBd07gDAAAAAFMiotOk5WrWBZVfdO+PRkiH8Qno5PDpcjU7sKUBAAAAgCkR0WlWxKOPPAJGI6TDeAR0cuj2ewI6AAAAADA5D87Pz91rNG0xX3ch6Vnr22FE3fr0T5ar2UnNN1LQoyACOjm8in27ddABAAAAgMkxEp3mLVez/W662da3w4iMSId8BHRyENABAAAAgEkT0UFIL4GQDsMT0MlBQAcAAAAAJk9EhyCkj05Ih+EI6OQgoAMAAAAAVRDRYYOQPjohHfonoJODgA4AAAAAVENEhy1C+uiEdOiPgE4OAjoAAAAAUBURHXYQ0kcnpMP9CejkIKADAAAAANUR0eESQvrohHS4OwGdHAR0AAAAAKBKIjpcQUgfnZAOtyegk4OADgAAAABUS0SHawjpoxPS4eYEdHIQ0AEAAACAqonocANC+uiEdLiegE4OAjoAAAAAUD0RHW5ISB+dkA6XE9DJQUAHAAAAAJogosMtCOmjE9LhbQI6OQjoAAAAAEAzRHS4JSF9dEI6fElAJwcBHQAAAABoiogOdyCkj05IBwGdPAR0AAAAAKA5IjrckZA+OiGdlgno5CCgAwAAAABNEtHhHoT00QnptEhAJwcBHQAAAABologO9ySkj05IpyUCOjkI6AAAAABA00R06IGQPjohnRYI6OQgoAMAAAAAzRPRoSdC+uiEdGomoJODgA4AAAAANC+J6NAvIX10Qjo1EtDJQUAHAAAAAAgiOvRMSB+dkE5NBHRyENABAAAAADaI6DAAIX10Qjo1ENDJQUAHAAAAANgiosNAhPTRCelMmYBODgI6AAAAAMAOIjoMSEgfnZDOFAno5CCgAwAAAABcQkSHgQnpoxPSmRIBnRwEdAAAAACAK4jokIGQPjohnSkQ0MlBQAcAAAAAuMaD8/Nz2wgyWczXXSB7ZnuP5izi0UnNN1KonCQBnRwEdAAAmhMn1L8Tt/vJ1u3vLt8+4f40vnZetlzNjj2KKN1ivn4Sj+3tx/7m47t7LJ8uV7PtxzsANC+J6JCfkD46IZ3SCOjkIKADAFCt+MzxXoTCx/H1XsxMN5SXKaXu/fVJfJ3WfqyBcsVzYC++nt7yir5OKR2llF54DAPAl0R0GIGQPjohnVII6OQgoAMAUJUYXf4kvro/Pyro9r2Mz0DdMYdj78MZUnzmPoivPk4a6R6/z824APRhMV8/jtfqv5JS+qkrXq9/L6X031JKv5ZS+rfL1eyfugMogYgOIxHSRyekMzYBnRwEdChM7BsvDvhvTrF54SSm2Dw2EqgfMZ3p5sjETRfb+8TBYkqwcaDx8Y5pp6fqJEbrXozY/dz+jdvaeG7sxX+HHGHet1cxyvfIY58+Lebr7vnwYqDnw2cppX2fJadp40SjxzuWrKjZ5nIFF3/2vmMEi/l6P6X0jZTSn7zjb/9/KaX/GCf1/MtJbwwmTUSHEQnpoxPSGYuATg4COhRiY3rNg1vuF8/iwOihtSpvJ8L5/i3fa5/Fa1c3lelRCbeDNsQ+Yj++Wnrv9GpjGmwnDvGWCOd7lT03zjaCutca7mwxXx+mlD4YeAt207zv2T9PQ+wzD2KfOaUTjXJ5vfG+4yROovUZq2dxcs8/Syn9ZI8/+XdSSj+/XM3+XRE3kqaI6DAyIX10Qjq5CejkIKBDAXqeXvPTOAvfgZ4rxEGbwx6m9X0d27vq12zGNcAUvFN3cSLLUUR1+7sGbZx41kWg9yvfAhcny1mHmlvJfCyxieNmUxbx/Lnjy3fyOt57HHvvcT/x+v1vUkp/5oof1O1Pfiul9F9SSr+bUvrvGzOF/fH48x+54t+/XK5mtczUxESI6FAAIX10Qjq5COjkIKBDAQacXvOj5Wr23H38pnj9ORoguLyOqUxN9U6vYprVo8LWcS7Nqzgp5sj7mvrFc+IgAnqLJ5V4vHMjIx1DFNILtZivDyKgOxmvH682ZqbyeL+heA3/Dymlr+34F/8zpfSPUkr//CYnKcTnur+cUvpmSumP7fiW7jXyveVq9jrX7aNtIjoUQkgfnZDO0AR0chDQoQAZpuIEf+MAACAASURBVNd8GVNreq5/OXX70cAHD7+7XM0OBvz5NCTWiPzEfX4rn8YBbSe0VCZOOjtoYNT5TVnKhUtFMP14pC3ks2ZB4vjLoWPJg3q9MVuI/fElrnhf28Xzb9znWOhivv7plNKvppT+xNb/+v2U0l9drmb/oo/bAFcR0aEgQvrohHSGIqCTg4MaMLLM+0LP+fwxsot4B61vc+4n0xq2NXsVcdFSCxMX++/nZmO4kqVc+EKM9PzByFvESYUFcPxlFC8jpnv/seGKz2LfWa5m3+rx9/xSSulXUkpf3bi4C5u/IKQzNBEdCiOkj05Ip28COjmIaTCykfaFTT/3RxrN+9lyNdvL/DupxGK+7oLhh+7PXryOuOhg9sSI53ciptM9d04K+cz9dbOCjMfxl9G93pgtpPWTmbvPRN/burhb5/wvDbGPWMzXj+Lz7+bsY78fn4dXff8+uCCiQ4GE9NEJ6fRFQCcHAR0KsJivu+nEn45wTV4uV7MnrT0GYjTW8UjrPxqFxa2Zwn0wr2OGiKNKb181xPNeiOmNKuw1pMn3nqVwzLgYZzGdfpMxfTFfP04p/WZK6Sc2Lv4/KaWfGfp4+mK+/q8ppdnGRf83pfSHHRNjKCI6FMqbotEJ6dyXgE4OAjoUYOT1KTsfLVez5608FuL152TkEGMUFjc28kkfrXgZMb3qz29TtJivn0Q8t+Z5f74bMd1ngEYs5uvTwk5A8T5oBAV85uBtTcb0HSH7rYC+mK9/NqX08zf4cZ/H++Tuv6c3OVFsMV93663/wY2Lfmu5mv3UrW8I3ICIDgUT0kcnpHNXAjo5COhQgDgL/7cLuCo/18pIzBFH/W/qRr++Zx/MTSzm62MBMZuPTLFahvi8cOiYxmDO4sQRSxpUrtCZTCxvk1l85jhxQl6xzuL9R/UnNi/m62+nlL65dfGf3j5+fo+u8XvxWP+l5Wr2G5dch+49xu+klH584+IPl6vZ37/D74MrfcXmgXItV7P9mK6LcXRvTI9j5Ei14gDTkwhy3J+ATg4COpSjlH3+izi4VrUYgTN2QE8xGsyU7lwr4oeAnk+35vxJjH5mJLGvPhXQB9Udr/ikO0mn9mMWpBKj3NMW3ncW5rmAXrTuvvmwmzUi1gqvUhwP3P4M9Hd7HoD2YymlPxvv5/7xrm+IY2Hb7zH+Xlw/6JWIDoUT0kcnpHMbAjo5COhQiHh/UEoc696zVD0SPbZ3SVNYiujcRDNLLRSkO8nl+4v52rbPrItqMfPCx2JPNt37kB94vNcpYlxJ07hv8pjLJE5YcFLSNHTP1+91M2dVeqLJt7bWQX+1XM3+wUC/60FK6W8v5utf3vU/l6vZr6aUfn3joq/GDDjQKxEdJkBIH52Qzk0I6OQgoENZSouo7y7m6yoPHMRrUGknCTyseaQJ91d4/GjBhzFK16ikDGL0+YmZF0bTPd5PjEqvTskn7O3Zv2bjhIXpeRojqWs76faDrb/f9vZ9fbmaPdj+6qaDj9mE/seOf/OdK37eX9j6+y/c8vrAtUR0mAghfXRCOlcR0MlBQIfylBhQP6g07B4VGiNFdK7i8TG+LuieCovD6T4nGH1ejHdjVLqZUioQy1KUfFLKQ7PyZOP9xDR1z5GP44S+yY9Kj8+YX9u4qBuFftzHz+6mg+/WM1+uZn8o1jrf9GOXfb6N42P/fuOiH1/M13+tj+sEF0R0mBAhfXRCOrsI6OQgoENh4sBmqbHgRU3vV2KK2lIPIlt3mas46F2Gi89x+61viL7Fa+Gp0efF+dgsDFWYwj7LfnVghX/m4Gbej1HpU3++/PWtvw81A9rf2XHZX7zi+//W1t//Rs/Xh8aJ6DAxQvrohHQ2CejkIKBDmUqOpw8jpE/+4HkcOPywgKtyGVN1s1OMOHLQuxzdffGJkN6fOMHp+x7nxTILw4RNaA3sR/arg/McrsPF+5Apf0b7c5t/GfB46H/ecdnXdlx2cT26pWT+98ZFPzPM1aJVIjpMkJA+OiGdJKCTiYAO5Sr94Me7A44OyKLQddDfEqEftk1+2s5K/fAAdusb4T5i+vajwk9w4kcexvTuIuf0TGkNbFO6D0tEr8uzKR5Tjs9lf2DjotzHin/3mv//6xt//okaps+nHCI6TJSQPjohvW0COjkI6FC2KbwHeDbxA+dHRjgyYU6uKNczIf1u4qB09xnh6RSvf8OcPDIh8Vl8SsuBvOuEwkGJgfV5N44pT+l5s/3Z919l/F2d37zm3/zG1t89b+iNiA4TJqSPTkhvk4BODgI60JfDKb5XKXwddGD6hPRbiteSE58RJqt7zB9ZJ30SDiZ4EqHR6HA73XP8+xM64Xn7teO6qH0n8V7jV3b82+tmJ9v+/2ZwoDciOkyckD46Ib0tAjo5COhAnya3PvoE1kHfZvQVTNOzOGGHayzm6734jGB2kGl7GscvhPSyTTFIPzV9MtxJN1PIFJbg2j7ufdrnD+8+/y3m62+nlH5tx/rn/2S5mt3293mdozciOlRASB+dkN4GAZ0cBHRgCJNZH30q66Bv6fUgEpDVh9aLvlpsn+8J6NV4V0gvVzzfpvpcc1IS3M0HDc2O042+P9/+6i5PKX2zW8986/u/s1zN/uYdfo+TeuiNiA6VENJHJ6TXTUAnBwEdGFI34nIKI5umuA66iA7T9on1fHeLoPdJideNe+k+853WfvxioqYcovecnAF3ZpmZN/3DlNIfXa5m37rjv3dcjd6I6FARIX10QnqdBHRyENBheqb4fP245Pcp1kEHRnQkKL5JQK9eE8cvpiSWTXg04Zvw0NrocC8lh/TcJw1/o/vseo9/79gavRHRoTJC+uiE9LoI6OQgoMM0nUz0eh+VOEpoguugb5rqYwH4Uvc57oVRlD8ioDfj4viFaW/LUEOAtjwG3E+pIX07ot/1deNfR7fY/PpPKaX/teN7u9ktXt7w524fh3d8jd6I6FAhIX10QnodBHRyENBhuo4nes27EU5Fvb7FwfuprYN+4bV9OFSje0982PrdKaA352GpJ9i1JE4mrGE2nkexDwHursSQvv15567L4Hy76xZbX39quZr9ZLwPO9v6/j+/mK9/9gY/96e3/u4kZ3ojokOlhPTRCenTJqCTg4AOE7ZczaYa0TtPC1sffYrroF+Y8uMAeNuzmFK5SRHyBPT2dJ8J/z979/ciWZ7+CT3661y4sJDzXS+9qBrixruqRhARg6oGURG1clAUvalsWAhchc6+EQWhq7xSWOgs/IEBymSB4I3yzQKFFWGnirhVpkoU8SJ2K/+A9TsJggquJaf7iZqs7PwRkRHnnOfz+bxeUMx090znyRMRJ875vD/P87wVpI+qpuBZS3fYXaogfbGcXg2l/8kefsb/HBXu/++Vf7TJBsdvrvz10O3nqZgQHSomSB+dIL1MAnSGIECHOrwp+LdIMR99PludFP59JESH+jTZ1j2+E0rtCsLuHvlOG0d05Hle0a/0KDbkALt5nmzj8+rSf5/28QNijexvXfnb09vuy+KfXW4v/5eL5VSIzt4I0aFygvTRCdLLIkBnCAJ0qEfp3xmjVp1Fted3Y/38Pbio/b4BGnVQwfV9K5eeEUrtCsJ+PEo6i7d2NVZuq0aH/fgx0YiEv7j8F/PZ6m/09HP+i2v+3m3r6lfPz9/e8/HQOCE6NECQPjpBen7dzJ1vBOgMQIAOFVksp13F3nnBv9HBWFWHUXVV+vdu87OToWLPWmnrLkDnimyVj1WLz1+NM8Sfxb0esLuTJGvK/8mVv/63e/o5266X/XtX/vq/3OOxgBAdWiFIH11rQfq7BIezqYsINatuXSdAT0GADnUqfeHzyXy2ejHCzy15Dvok7h+E6FC3k0baupc+VoP9+7GVTSQJHFe8gWWM+0uo0U8bn8e+J4kW6f/Lpb/1YD5b/fMjHtIkqvT/oUt/6+/FRnfYGyE6NESQPrpmgvTFctoF6S8THM5durD/4WI5fZ/7MHcjQE9BgA6Vik1YJc9G7/ww5OzKCuagd45c06F6D2pvSRwVxzXNYmZ/TlUSD6LGKvS1w0Y2IsEQHozVQeyKf/fKX/9nYx1IXF/+5pW//R+PdDhUTIgOjRGkj66JIH3y83ut23X8TeI2ty+7sL/2BXABegoCdKjfUeFt3SdDVTdUMAe980qFAzTjuNYgMZ5Jf0xwKOQ02siXVkQF5YOKf90Ds9Fhr8bqIPbZYjn9b6889/7D89lq38H1x2v+3nXPqf/p1Sp0ncLogxAdGiRIH11LQXoX3na/56sEh7PWVZ//JkL+qgnQUxCgQwPiM15629OD+M7oTSVz0D8sllMLwtCOgxpbEsdzgoCUuzyK7jH0o4V25zVX2sMYfkiwnvwvTiaT/+/SX/+N+Wz1z13zv7tX189oG/+/X/nb//jlv4hNSP/alf/NX7f2Rh+++vTpkxMLjZrPVqdat41qPYu76lbia7Fw/mLE91y3U/K4lcoxAXoKAnRoTLTFLb2q71VfIfF8tnpf+PfSRYyBcV3nTlEp9IMzVY3fxKJuFawFsKVvYoM8exJjdH7fyPn8drGclr6JcjTz2ar77D1p9Nfnet365uMxn0mi+vzfvPS3/v5kMpkultPeu7NFgP67K3/7f1gsp/903z+bNqlEh4apSB9dMxXpk9hJGO+53wz8vusqz3+7WE4fCtAZkAAdGrRYTk8qmI/+XbRc36tK5qAfuq5Ds6qpGI1rvACdbQwy8qUxLVShr+ngA/v1YOxryGI5/bdi3WvtH5hMJv/bfLbqdUTFDQF6t8nxX+nz59I2ITo0TpA+uqaC9MmXYfqfTyaT76/cdO3LebSQ/03MPW+mVaEAPQUBOrSthvnop/ucARyLHaXPQX+pCg+a9ryGEDF+BxWhbOvA+2Z/Yv2npcriR1F5D+zPd2N/rhbLaXct+z8u/a2/MplM/s58tvpX+/h589nqP7gmQP+/onDK+hu90c4d+Il2bqNrqrX7VbGYcxjz0+/zQHkes3a6xe2zmlotbkOAnoIAHVgvjv6h8DPxIRZGdhLn4m0swJfqXbcpr+DjZwTJ27l/f985lVv49aV7+8dRNVW6bjNN0dWj89mq21z8LMGhjOU8Kta69/8f489Nn4X1e3gS//nQc5a27vvQ6Prbm8VyuvdORy1I3s79mxF/9vrevOXrc4a27t135Woymfy1K//ov18sp//snn5G9/r+15PJ5B+98o+6AP2faHUtneEI0YHPBOmjazpIvypuktZVcFcXrj8vejhfPxOgpyBABz4zH72a7yZz0LmX5CH64EFY3NsfRlvfUgP1825EVILjuJfGZjCvvYvvoe7P+31cy2Nz2ON4Rn1ayQaRTY0e2JQuroV/t9Ff/zetFjzsInOIvlhOv0pwGJ/F9fnppT8lb+Ld1Ogb/OKZ73/sZqJf+Uf/dzxP/jv3/Pd218u/OZlM/qVr/rEAncEI0YEvCNJHJ0hnawL0FATowC9Ucl/17WI5vVcL10p+f1V33IsQ/WYR5r4otJ3xb0scFRXPC+8bCXy7cXXda/R2iHvzCG2OYpNIC+e3+I4MY5rPVicVjLi5r9cx2o8tCNHvbz5bHca1ufZ17hQbVOaz1d+aTCb/zDX/6O9PJpO/Hd/P/91t380RnHf3if/GZDL5x274n/1Pk8nkn7L+xlCE6MAvCNJHJ0hnYwL0FATowLUqqsTe+r4k5qBfnVlXGkEB9yZEv1ssbp8UFjwW2ZI4+ftxH85jY8bZyG1tH0e3hcPKKyBVFN9D3Bd+bKQ69jq6+9yDEH138dk7Krwbzm3SjJ6az1Z/fTKZ/EeTyeQfvOV/9n9OJpO/F/+9ux781clk8qsNXpv/p7tvvG9lO9zXnzlzwFWxM/S1EzOa7oHqbTyAw40E6CkI0IEbxbXhKBYNS9Xdl5zGd85G4h7mpPB3xhsBOvQrKrofF/bs+Wyb62EGUdV179Ecyb2LTSFdMHc69j15t+Es1lO6c/6y8O//29yrQw0/fQ5bDdAn8bvXei0ise67YbGcnsRIlm9j41VNnsTGxNEtltP/fLGc/pXJZPJfRTv36/zVCMwfxHrmdIMA/b+ZTCb/iACdMQjRgWsJ0kcnSOdWAvQUBOjAnaKCu/QFw0ebhuLx/XRa+CLxeWx+AHoWC9tHsahditIq0V9UGNytw/OnGUduxPv6RcVh+pMYy8B23FsI0RlZbLhah+k1XZtTbWBeLKf/eoTpXRecv3PPf81fTiaT/zC6n/zLOqAwFiE6cCNB+ugE6VxLgJ6CAB3YWMwUL/2e6nm0aL/LSQXfT4eu7zCsuE5+XciCdjEhejxL1jSq7Tzm0qcMz6+6Eqa/ynV0Oyu948yg4h6qhZn5dznY8H4SehX3HTVdmx9k/GwtltN/f7GcdpXmfz6ZTP6FeCb+Q3yfX/3zv3b/l9jg0AXnf62rPBeeMzYz0YE7mZE+OjPS+UyAnoIAHdhaC/PRK5mD/n3X7jHBcVA4M9HvJ0Lft8krpy8Wy2kRLd0zz9K9h5cxC7XYe/BL405qeU2+jSCKO8xnq/ee4T87j0pgNmAmev+is8ZpBRtdfLagByrRgTupSB+dinR+IkBPQYAO3EtF89HPrpsHXNEcdAE6jCg26WSv9D4ooZV1HGMNYW13//11V9Fd+j14zEzvXpfvK2kj/CLBMaQXn0XP8H/ywDgAMomNhY8rWPtOWY0OpROiAxsRpI9OkN44AXoKAnRgJ5XMR38QlRqfmYMO7FMsZn+f/KSWEADVEHC+Wiynj2vryhYbtp7G80XJBDabsdngl5wTUonxG0fRSrxkPluwZ0J0YGOC9NEJ0hslQE9BgA7sRbQ9LX323rP5bHV5M4A56MBeRcj4JvFZTR2iV1CFfhGtwkvfeHaj2BjwtII1FoHNLeaz1cOK2vfv05M4N5BKPKt9XXC3EJubYM+E6MBWBOmjE6Q3RoCeggAd2KsIBUqvPvuxux+JMP15guPZxbe1VTlCJY4TL2JnD8VKXkC/iHvv6mdtX6p8zN554TZdYJN9BMOYbDK4mXNDSpc2OZX6vOazBXskRAe2JkgfnSC9EQL0FAToQF8OK5iHetaF6QmOYxevWwhqoESL5fRjdLpIKevzWFR3lrq5qbv3ftjaxqbovFByC+FqOwbsovDP4hCex5oHpFN4kP4gOtIAeyBEB+5FkD46QXrlBOgpCNCB3kQ4VHqrvQcJjmEXHyz8Q3oniTccZW1FXOp1rel779jQ9U2hG+yeWJu4lpbKd3MfRlrxfVRqkK4aHfZEiA7cmyB9dIL0SgnQUxCgA71bLKdnFcxHL1UXUhy5zkNu8RnNWo2e7jksniNKDO7ce//8fn8bgU2JQbow9JL4LDond3OOSO1SkF7adflJdMMAdiREB3YiSB+dIL0yAvQULOIBg6lkPnqJjs1Bh2JkDdEzLk4fxjNiSdx7XxLfTSUGi1pzf+mowM/iGA7ms5WKfVIrOEi3SQX2QIgO7EyQPjpBeiUE6ClYxAPGUGrVWanMQYeCxH3Zm4RHnDFEL23BvPvuO3Tv/aX4jipxRrow9E+EV5vTdpr0YoPTYWGvlGsy7IEQHdgLQfroBOmFE6CnIEAHRhHXndIWZUplDjqU6SzhUacK0aNta0nPEhdx7/0xwbGkE0F6aSNfBDY/fxa78/AgwaGU4sF8tnra+kkgvxi58bKgl6rr9OAZE3YkRAf2RpA+OkF6oQToKQjQgVEVuChTIhWPUK63CY88W0hW2gYhYzXuECNf3qU+yC89sh7xE5v1tqcanSIsltMXhV2XheiwIyE6sFeC9NEJ0gsjQE9BgA6kUOCiTGmOVDxCmeKza+zF7UpaKDdWY3OHhb33m65Gj4rqrM/254nX655ENw0oQUnX5eex7gjckxAd2DtB+ugE6YUQoKcgQAeyKW2xvBSvFstpxnbQwOZULd8gnv1KaR99rlJ3cwWOfGm96jFzRfVJ/MlKNTpFiOtySRuGWr8uw06E6EAvBOmjWwfpdvLmdipAH5UAHUjHfPRefIiWuEDZ0nWSSDTHt6TF/CP339uJkS+lzEd/0OqG/lh/eZLgUG5yGiMUPuQ8PBWzlCM255bSQSzLvQoUSYgO9EaQProuSD/zEJLTfLbqAvRnrZ+HEQnQgbTMR9+rC5sSoBrGMdyslOvcq/iOY3svooq/BK0GNpkrqV9fevbNXI1u0yMlKWUDm2ch2IEQHeiVIH10XZWz1qXJzGer7sHweevnYUQCdCC9mI/+xiu1M3PQgapF9WsJrdwvtGu+v3h2KSVgbG4uenwOMz/jfw7OF8vpaeLRQUJ0ihHPGCVsfD5I1DkHiiNEB3onSB/dk/lsZbEiiWht92Pr52FEAnSgJEcFVZ1lZA460IJSKsyO3YPvpqD2wY8a7IiXeePAu2jjftnpuId0oy7sa24TBkU7Sbwp5TLV6HBPQnRgEIL00f3Q6lyyTGIhwWL+eAToQFHMR9/JO3PQgUaUUF12HtWv7K6UDfLNVD3Gc37me47rPnuZW7orAqEY8byW+fO0phId7kmIDgxGkD46ixbjOy6k1WKNBOhAkaJy6Huv3lbMQYc6ZVwAzjAuooSFcaHYnsRM+RKq0VsKbLp7joMEx3Gdi+s2sEQb6qzvowdaT1OYEqrRW+wQAnshRAcGJUgf1aOYxc0IYkbaD879KAToQNEWy+mJ+ehbOXTNhyqlW/yNIGo00W0sa3i3pgp9/0rYlNBSCJr59bitQlY1OuxBPHeU8D2nQyncgxAdGJwgfVQv7DwcjYWjcQjQgVqYj76Zl1GlB9Tnkdf0F0pYEBeG7Vkh1ehNVD3G/O7M3eZuXIeIGftZ7y2fRCEClEJLd6iUEB0YhSB9NAfJZ3VVKVqRPWn9PIxAgA5Uw3z0jXRz0IU1UKGkrX0ztG7NviDenaOzBMdRI1WPORwlPrbXG3TLyPw+ck9HMZKPSFgTosM9CNGB0QjSR3OsGn1wNi4MT4AOVCfmo3/rlb2WOehQt4yf7/cJjiF7SHnmfrwf0SI/+wzeqgObAjbLbxKQZw7Rn1u7ojDZNzdp5w73IEQHRiVIH8WBRebhRAuyZ638vkkI0IFqxaK5e6dfMgcd6ub55XrZW9yX0N62ZAKbcWXeLH++yXibqJ7NfF+pIIGSZO+8cmBjCmxPiA6MTpA+Cg8iw8nc3q1GAnSgBcdxveNn35uDDvWaz1aHSWcOj3rdmc9W2QPK8+igQn+yh+jVzrQuYLP8Nq3QM7+PrF1RjFiHepP8eFWjw5aE6EAKgvTBPYqHPvonRB+OAB1oQlznjgpo4zqEN4vlVKUj1C1riHLXrOG+ZX+eMwu9Z7FJ4TzxIWbvlLCLzPO6L7b5/MVGxKzvo65y1poKJcn+3WcuOmxJiA6kIUgfnJaIPYvqkIxVMzUSoANNiYXz1qtzzm1Wg7olnzk8dpV1+nnoCY6hBak7sdS4eT/aIT9PcCg3ObvHc3HmDYmZNyzAVdm7Y2nnDlv6lRMGZNIF6fPZapL8gaQWR2bU9c4Oz2EI0IEmdfPRI2Bq9b6pqTnosWh/FBshs4aK+3Yei5GnWvY3K22b4QStylOHkz6zgzlLfh/wMEHXhn3LvonxPqHzafz/Dno4nl096O53XVMowWI5/TifrT4k7sShnTtsSSU6kI6K9MHU3FotC9X+/ROgA61rdT76963M2u3C8/ls1S1s/+VkMvmxoQB9Eh19unDo9/PZ6m0BM6DZo3jfZ+3q9C7BMWQO0TOcn1ZkDxarum7HhrbMIfq7LsTb9v8Uz9OZu0eoRqckmZ9RVKLDloToQEqC9GFE9Rr9aWmRewwCdKB5cQ08bGw+ejNz0CM07gKSHxIczti6+6o/mI3ahnhOyfy+zxBcZg7RVYwOJO4DMs9Fry2wOUxarb22y/1R5nurJzWOBqBamb8DFVTBloToQFqC9EEI0XuiUqp3AnSAEBVHrQSLzcxBvxSgW+z60u/ms1XaFt/sLio9s8/TznB8Wav0J8mr8GqU+XzXFnxmrog+Xyyn9742RYefzN2NVKNTitpGWEDThOhAaoL03tnJ2x8tkvojQAe4IhZNX1V+Xi5amYMeIeLb5NVuY3quIr1Ohbz3L1oZJ7ED52dYQvQBxPdO5s0r+9hglrka/Xl8R0Bq2ef3K/qB7QjRgfQE6b0SovdHlX8/BOgAN1gsp7XPRz9uKLg6E6Df6Xdau9blUoCevfvC6FXo2d/795nJzE5sWhhG9s1b+wjAz5KPCMo8jx4uM2YDKiFEB4ogSO+NGydKIkAHuFut89FfL5bTJlp4xyzoJwkOpQTauleisPEFGd53mUP0mjdzZeX5qGcFfDe/3sdzcvw7Mn+3CtEphc1kUAkhOlAMQXovzNjsj8qo/RKgA2yg0vnoHxpbNDXzc3NPVKOXbz5bHRYUoJ9nb9OagPv14WWuRK9lU1gLVeh9/Lv27cA4FwrhuxAqIUQHiiJIpyAWdPdHgA6whcrmo3dV9UetfAdEO2tV6NuxmF6o7v0+n62669VfFDS+IHO4RKM8J/UrNms9T3yIH/Y57iY2ZL7b17+vBzYbUoLMm5uMn4QtCNGB4kSQnvmGHtifCwE6wPYqmo/+oqE56BOLWvfinBUmwvMX0er0WUFHf2GEwEZU6lOb7KFtH5t7Ml/rHkR7fQDonRAdKE60blKhA204UPEDsL2YL1zD2JbWqowfJziG0jhnheiuS/PZ6iTC8x8Kqj5fO7GxE9oSHWIOE//SF4vldO+Bd/w7z/f9790j1egADOJXTjNQkgjQf+dFowAfbfbYm+fz2WrdhQKAO8SC71kl5+lRF7pFZT1cp7QgtglxHXocI46exp8HBf/uFzZ2QpOOk3/P9FkxfhobnjJ60rXZj9bzANAbITpQDAF6L2po85qVh7n9EqQDbO6s8LDqqu/ms9XbmPUO7O733X0VW1GFDm3Kvomvz809mUP0SVSjWx8AGNhmSgAAIABJREFUoFfauQNFEKD3xkIQJemCdHMoAW4Rc4Zr7IRy2lUcJTgOoD2q0KFBsQ6VuQr9TZ+V2PHvftPXv38PnkfXEwDojRAdSE+A3ivV0v15X+svNjJBOsAN5rPV0+QVQ7s4qKhF/W3cm23vXWkHTHGOVaFDk7LP3R5ic0/2DUTG/QDQKyE6kJoAvXcWavvj3PZHkA5wRWVz0G/y03z0nIe2Nzbhbc85o0/vFsup+87tPC7pYOE689nqMPlonPPFcvq27x8SP+O875+zAyE6AL0SogNpCdAH0ftDV6sWy6kF3X4J0gG+dJa85ei+fBf3iFWK+4fMi9UZuZ+lLxfm7d6L9srUoOVZ6GP+rG0d1HxfSNEyfxdar4QtCNGBlATog3Hj1C/tRfslSAeoew76TU7ms1XNlY5mL2+uq8Rroc0/4zjqc94w7EuMc8mquI1hcT4z31d1G3yGfA7O/sydve0+bcr8rGJEDWxBiA6kI0AfzAez/Xpnk0L/BOlA06LdaK1z0G/SVdyfRgv7Gp2qRt+YNq705ZUNGvfW0qYu7lbiRpTslc1nQ67lxM96PdTPu4cHyTeSAFAwITqQigB9UFpf9s/C2zAE6UCT5rPVwwKqg/ryqNaK7Vis1pr0bq+FnPSkm4OeeoPGELOQd1HxJqesBIh7EvdWz5Mf5hiV19nvuVSjk40NZVAJITqQhgB9cELHnsXi1kXVv2QegnSgRa3MQb/J81rnYMY9xLcJDiWrD6rQ6Un33jp0cndW88iNjB4mPrbSut9lD2PfjTFmYrGcvo/rY1ZPYgMEjK6AjWS6ZsIWhOhACgL0wZ3HQxD9E+wOR5AONGM+W51ENXbrqp2PvlhOTwXp13rXVV0aS0QPus2vhwW9tzJv1hWiDyvz+S5m3SGCr+ybaMZ83lWNDptJ/R3oHhq2I0QHRidAH4WgcTjO9bAE6UD1Yg76d17pn1Q9Hz2C9K/NSP/s5WI5FaDTh4vYnFHS/ObM4aT24sOyqW4/jpN3+DmP+4KxnCXfvPPcKAmSyPwd6JkCtiREB0YlQB+NkHEgUfH/rolfNg9BOlCtxueg3+RRzeeku5dYLKcPoyo9cyvVvnSLfa8mk8lvFsupKjP6sA7QS+vUlXkziUr0gcxnq+wbFlLP778i+4iYUe91YgPb2ZjHsAGjXsgg83dgSZsFIYVfeRmAsQjQR/O6sAqLGnQLvr9v/SQMrAvSuwf9KmflAm2K6prW56Df5Nl8tjpeLKfZW43eW1SfravuH8cM3Jrnf3bByx+NIKJnH6KFe4nPR91n41mC47jOg27Tl+fOQaj634NYn3qQ/DAzbBjs1jaeJziOmxxr604Cma/LvpdhS0J0YBQC9FF5oBjYYjl9O5+tumr0J0394uMTpAO1MQf9dj/OZ6u3tYeuUQlWUmUfZPWh8Pn62RfCDwuYoVyD1DO8u2fhBIexiezrJCmKIbpjSL62cdCtN47c9p6GRXeQzBueheiwJe3cgcEJ0Ef1SjXAaGxeGIfW7kAV4v4pc+VPFmfmYQIb6AKpx4XP18/+XGcja89ixEvmzXVFzN6N0EsV+uayP19be2FMqTc2RRcbYAtCdGBQAvRRXXiYGE/swH/T6u8/MkE6ULT5bPVYNd/GHpgZD9yieyb6toZORQVU+D6KkJf+ZA9rStnAn32d5EOmz3tUeV8kOJSbPIiNETAG12WojBAdGIwAfXRHhVda1OAo+cNmzQTpQJGiqvrUHPSt/DQfvaDjBYaxbt9e0z1h9krf7GFC6bJvBknfyj02KmYfu5ZxI2X2zZ0KSBhcXE9Sd7WofewV9EGIDgxCgD66rl3hWePnYHSxiUFbw/EI0oESmYN+Pz+qQgIueRnt22tbPM7++9jQ1JMIa7LfH5Twecv+Hu024Wdcy8n+XP1EJwxGkP168i7BMUBxhOhA7wToo/tg8SKP2MzwqvXzMCJBOlAMc9B3Zj460C0Yf71YTmutSsweUmqr3J8SnvFTvz8jZM1+n3WasaPgYjn9WMC4OtXoDCaeOcxDhwr9yosK9EmAProLbdzzWSynx7GYpLJwHF2QPqlhFiZQr6gwcw+1m4Oo3hLgQHu6NucvKmvdfp2uXfYP+Q7rCy9ch/erkPD3PILWzIrYiJB4I0oXyD1LcBw36Z77j62HMZDDAsZvCdHhHoToQG8E6Ck8Ne8mraex6CVIH4cgHUgrKhmMYdmPrp3ni4qrUIEvXcQYjJMWgpPFcvq2u6dNrrsOd8+l6edjF0QV+o7iXquEZ0Frars5VpHOQEp4n/kehnvQzh3ohQA9hW8F6HnFot7TaLfPOLR2B7Lqrk0PvDp784N2wlC9Ljx/OZlMHnabZhqrPCxhxqkQa0+iCr2E8Dd7WHNcQNUouzPakN7FGnj2Z7cSuoNASkJ0YO8E6Cl820DrwuIJ0lMQpAOpdG0nk7fGLJX56FCnrm37942G52slVJY9sZlpb14UEv5m76ijI1kbDmKNEvqkCh0qJkQH9kqAnoIAvSCC9BQE6UAKMQf9R69GLw4sHkFV3kwmk98ultMuPG+idfstShn/oRp9R3GfkH0W+iR7xWMhVaPsj2sPvSnoemJUGNyTEB3YGwF6CgL0AgnSUxCkA6MyB30Qj+az1UkDvyfU6jxatv9msZweLpZT18yfnyXeRzv77J6oCN1ZKd9h2T+bQtW2PNAJgz7E81sp12WbieGehOjAXgjQUxCgF0yQnoIgHRjTmaqoQXw3n60OG/g9oUbd/fKZmZ7XKmVDwYnRGvcT416eFHK4acOaCFPdb7XHxgn6UMp4jXeNd+yBnQjRgZ0J0FMQoFdAkJ6CIB0Y3Hy2elHQwngNTuez1cPWTwIU6FEXztkIc61SQvQubHCvvaX4ziolBLxI3iVCmNqmJ+792KcYr/FdISdV5x7YgRAd2IkAPQUBekUE6SkI0oHBREXUD874oA4sJkGxus/vX8TmI0KEliW0dO8809Z9a6eFVDtOMn+/Rohq02K7fG+wF9FRpaQ1I889sAMhOnBvAvQUBOgVEqSnIEgHemcO+qjMR4ey/TCfrc60Bv9CSd8nJ1HFxx0K7FajCp2snvvOYE9eRHecEnwwBgd2I0QH7kWAnoIAvWKC9BQE6UDfzgqqLKvRd6ohoWjPor27MPZnJYXoBzFaQ6B1ixhdUFK3mrSt3KMK/XmCQ2Fcx84/u4jrcilt3Ds2DcOOhOjA1gToKQjQGyBIT0GQDvSikjnoryaTybsEx7EL1ZBQNnPSQ4SX5ykOZjOPdGO5WXw3lfYckvl4bZpjIkRnF4Vel33Pwo6E6MBWBOgpCNAbIkhPQZAO7FWBlWXX6VoDdguRhwXN4b2Oakgonznpf1LaPesT99m/FN9JbwvsVpOy4jHOp/CUzoEuRNzHpTFcJV2XX8eaIrADITqwMQF6CgL0BgnSUxCkA3sR7URLv55cxPfS+juq9ArQR1odQhXMSS/z+8V99iUFB+jvEs/dPTI+h0tsuGIrl67LDwo7c75bYQ+E6MBGBOgpCNAbJkhPwQIfsA81zEE/vFzVsFhOu0Wll+Me0s6eq0yCKjQ9Jz1CzDcJDmVb7rO/DGoeJTicbWV+/VShc9mD+Wz11BlhEwVfl8/jGQ3YkRAduJMAPQUBOoL0HCzwAfc2n61OCl0Yv+zldQsyi+X0hfnoQBKtz0kvtbNG0/fZ0amm1AD9POt6RaxnlVY9Sv9Uo3Onwjc2eY/DngjRgVsJ0FMQoPOZID0FQTqwtQhzviv8zL2LsPwm5qNDGV5H94jSN77cptk56bHRqdRnhecttuSPDVzvC95ol3njhip0rvMkNq7AtQoP0C+i+xmwB0J04EYC9BQE6PyCID0FQTqwsYrmoN9a1VnRfHTXd2p32m2IWSynTyNQr1mrc9JLrUafXGrJ30TAFesuJc5AX7vI+r0ZLbtL7wBEf1Tqcq3CO4N0Ti6P3gJ2I0QHriVAT0GAzo0E6SkI0oE7RXBT3Rz0m1QyH/3ZfLZSuUYTFstp99z3feW/a1Oh7OTn17W7Rz1PcCj31QUX72tvyR9jXn5X+D1C5rBGSMptnus+xFWx+abkziCTwjfSQTpCdOAXBOgpCNC5kyA9BUE6cJdq56DfpJL56D+aj04rFstpd536tvBxDHdZh7JPcx/mXpUeIK5b8p/UFnR13y/z2ep9BWNeLrKGNbFp5kmCQyE3myb5LEbA/L7wjU2vVaHDfgnRgS8I0FMQoLMxQXoKgnTgWnFf9bzws/PmjjnoNyl9PnqnxRbQNCqeP55WHqR3i+K/b6XTRAXV6Gvf1bQBIkKaP1TSZlwVOqUTovPTppv5bNVtGP6hgrPh2gd7JkQHPhOgpyBAvyJ26T+9+ifVQY5MkJ6CIB34QlQxl95Krwtfju7zf7z03VSyB+aj05LFctpVxj5u4J6y6zRx2sgmmVoW0x/EBojTUtvyx/Psx0pCmkkBVeilb2JkGAexFkqjYmPT+0o6V3Tdwz4mOA6oylefPn3yigIC9ByaDtDjQfdpLNw93uIGtlvk+xg3vW+3aTdbm1gIfFtJVUOpXsdsUaBhFV2Pv45Q7d6i4vPHcX+NnX0f7a5hY7EomzUs++a2e+a4hp010Aq5e444rH3BOdqG1/R8sA5vM1dBfxYbwF9U+Hl6ec9ONb1Lfv0ln/PFcpp2c05USKe8fiyW068SHMa9xLX5NDZp1aD7bnyolTvsnxAdEKDn0GSAHlV6R9HydV83rhex6Pe20XMqSB+fIB0aF50pSq+A2ltwPJ+tuu/lZ/v4d43o1tARrnnfFxuir1VyLbvLRQTp1X6+Iyj4fYJD2bd1mH6acSNExeH5JHPoGM/DHwufaczw0t7nCdH3y8YmYFvauUPjBOgpNBWgdw+13fsuWtn9IWbc7XPn50Es9v1uPlv9cT5bnZTa8u8+tHZPQWt3aFhFc9D3WXl9VMFcXvPRaU5sCnxZ+e9d/Zz0CIbeJDiUfTuIjSp/N9q8jz5C5Mqz7u8r7uaQ+fNyKEDnHoSPlYtr89tKr83nFYwRg7RUokPDBOgpNBOgx8LzcfwZ46H2dfdg1Mp8IBXpKahIh8ZEh5U/FP5bd4swj/fdCrCSc/NusZyWPuedgdRQib7W0HNj97xwXGMr1NhU/L6BcPE8upKd7jqOZFPx3HUYf0rvurKJ1N+FsYGhlvbMDOs3SbtaqES/p0vdL48q//777WI5PUtwHFAlITo0SoCeQksB+lHs7M3wMPuylPl5uxKkpyBIh0bENfd9BQu3O89Bv0kl89G1SmQjNYXokz8tRL9tIIStdk56g3Oiz+M92/15v6/vtvi+fxzdv55WXG1+k5RB48Q6F7tL+ewuRN9cbBh7eulPCxtqbPKFngnRoUEeLFJoIkCPG9jThDf83YLKUQuzTQXpKQjSoQGVzP3u/f7EfHRaUVuIPvlTkH7awH1ltXPS57PV+8afC97FvOzLf26zDswnEco8bLzKOfVGssxhI8X482wFF8nf19+M+LPX1+f1fz5ucJTDRXQQa6LjJoxFiA6NEaCn0EqAfhiLbJlvYl8tltNq5x+uCdJTEKRDxSqpsB7kOlVJxX63YPWwha423F+NIfqkvfvK7xfLaVUzRmNu+O8THArl+bBYTh9nPWrvbfYk3UYRm0O4hQ5ZMIA/c5KhHQL0FFoJ0LvFpr8oYBfod101RiwGVisW+Z9Ge0rG8Xw+WzUxvgFaE5WZpQfo3ffDIJvK4jvpcIif1aODCBGhOd1nOIK01w387j929281PSvE5olXCQ6F8mTfEFz95ngG4X1EKT4I0GEYQnRohAA9hVYC9O53/C7BoWyqq6J5GyFItQTpKQjSoTIRrJwV/ltdxIiTwaqqYy7t90P9vJ48ik2D0KToXPGygd/9eTwrPExwLHsRnbg8E7CNl/uaKd+H+HyWPiqGHA5i/RQyuyhgYxNUQ4gODRCgp1B9gN4FCdFm6nmCw9mWIJ2hCNKhLmcVzEY9HmNhPFokvxn65+7ZdzG+BpoUFVDfNvC7d88K7yt7VjiKRXi4y7sCqh1VY7JP3k9k9yLzxiaojRAdKidAT6GJAD3ampY8p+lAkM5ABOlQgZh3XPp8wtcj36N096nnI/78fTitqUIVthXXkK8bCGSrelaIxXdBEXdJX+0YaxElbuQnrwcxYx8yehObkYGBCNGhYgL0FFoK0B8lOJxdCdIZiiAdChYLaz8U/hoONgf9JhXNRy+9pT/sJALZFu4tD2pq7R6L8C3Mtuf+unEvH5OfPzOs6YNNRmR0ro07DO+rT58+Oe1QIQF6CgL0cnU77p/W3h6p4tevJK9jpihQkPls9bHwNu6pvufms1W3AP5jgkPZxcsC2t0yoOhWkXWzzTeL5fTtvv+lDd1bflgsp1VsuvU8wC3Sf6/F+/djbHDJzDPfJQXd9/0mwyaSGJtYevcr9uNrbdxheCrRoUIC9BQE6GVTkc5QVKRDYeI+q/Q56EeZFmAqmY/+g7butK67t4xwufbq5kexSaJ48TxgPjpXvSlkY9hhAQF6R+vlL5Xy/GtzJJl8K0CHcQjRoTIC9BQE6HUQpDMUQTqUpfQFtVeL5TRj+/GjCr6LLLbCz/eX3ef5ZeXn4jieiYoXi/Klj9Zgfz4U1C64hO/dd4KvL8UaRAmbrZ7Xcp2neK9rX2eGzIToUBEBegoC9LoI0hmKIB0KMJ+tDguvQu9aEKecHVpJNaQQCkJUsX5b8fk4qGkWc7T3r/n1YjPdd/BhfCenVtA9mWe865VSna8NP2N7YxwEjEuIDpUQoKcgQK+TIJ2hCNIhv5IXMC6yh7xRqVVyKHUQi/rAz5/p7r7m64pbhVe1qB2v16sEh8I4us/p0wwzoDdUwufvQvXo9eKer4S1B+ElYyqpMwhUS4gOFRCgpyBAr5sgnaEI0iG3pwW/PkclLIzH/VTJ85RLfo/A3kVQUuv95YPang+iW0ntM+253mEpbcdjbeJZgkO5i1notyvh/Dyaz1YPExwH7fkQG5vSdwaB2gnRoXAC9BQE6G0QpDMUQTokFNf/g0Jfm6xz0G9yXPD3UNX3CXAflQfp1XWfiLaxgvS2fBst/UtRyoY1z3S3OyukU4kNkgztQoAOeQjRoWAC9BQE6G0RpDMUQTrkU+q1P+0c9JsUPh/9SYJjgHQu3V/WFs5WGa4I0ptS4ppGCfdkrwtqjT+K+F4o4b2nEp0hCdAhGSE6FEqAnoIAvU2CdIYiSIdcSlxAuyg14KlgPjpwRXd/GeFsTXO3q30mEKQ3odQ1jRI+d57jNlNCS3eV6AxlHaAXMVoDWiFEhwIJ0FMQoLdNkM5QBOnALg5LrmIodT662Zlwu+iO8W0lp6nUMR8bEaRXreQ1jV8nOIbbfCisPf5oolr/XaO/PlzWrbs9FKBDPkJ0KIwAPQUBOhNBOgMSpAP38bKSBdwS56ML0eEO8Tz1TaFjG5oiSK9O95n7uvY1jZGVUF2difcirfughTvkJUSHggjQUxCgc5kgnaEI0oFtvFsspy9qOGOFzke3AAYbiI0+3T3mufOVWwTp37d+HiqgVXD/unN8VvsvuU+xxuZ7gFa9EaBDbkJ0KIQAPQUBOtcRpDMUQTqwiW7x9rCmM1XafHThBGwuPi+P3WPmt1hOTypqw9+i7jP22HdU706FYffiOZcWvV4sp0WP34IWCNGhAAL0FATo3EaQzlAE6TCeUhadq1yIKXU+Ok0TVG3o0j1miZ/xptrRx7X4a234i7OudPzY+okYgFbu95P5GXfsz42AtU7fRpcXIDkhOiQnQE9BgM4mBOkMRZAO4yhh4bmWOeg3KWE+uu9H1tJeMzJeJ7p7zFhMfpXgcLbR3GaJqGR+6HpXjJcVVjpmvdd5Y6PC/cR5e5P08MZ+TW3Kq0s3uuDr2teZoSZCdEhMgJ6CAJ1tCNIZiiAdBhahQebKuze1zEG/SSHz0S108pPE14zU92+L5fS4sJbhNW9culFsenhc4KaHlnTXn99Wem+QNahWhb6brOdv7Ou8e8t6vDFWA8ojRIekBOgpCNC5D0E6QxGkw/DOkp7z8wiXq1fAfPQmAzVulPH9kP49Gs9g3xTSMjzr98IgYtPDb7V3T+ddBDW1vj8zXsfOK+8G1Ls4f+cJD23swNP7qnwXscZs/jkUSIgOCQnQUxCgswtBOkMRpMOwsi5GN7Ugk3w+etOBGr+Q8f1QxH1DhClPkwYqa+eqyX56rbr3+eMIbhlf17696vnn8btluzaoQt+PbOfxzdj32PHzs7a6527rTU3WbaBQQnRIRoCeggCdfRCkMxRBOgwkgoJsi7bfNxriZJyP/lp1CVecJavQLSr0jWN9nPg+0/1X6ELNLrjtvpNUpY/mQ8zZrXq0yyWZwtYL14O9yXYes2yG8/4qz0U8p1W9qQlaIESHRAToKQjQ2SdBOkMRpMNwMn3WuuqYJiuf4rvnMFlY4zrMF+J9mukzWly4duk+M1v3iQuVp78U30mq0od1EdXnrc3ZPU10D3BmE91+xHnMcr0/z7I+mHQjLzfr3sMPW31Og9oI0SEJAXoKAnT6IEhnKIJ0GMZJkkWsZuag3ySqOrKcg9dmoXKDkyRBz4dSn3W6+8zFctp91l8lOJy1E6HZ9S5Vpf9W6NO7dZvgVqrPP4vPX4bf+6LEDUrJZTmf2V7Xpu/7C9Fdk7/p7lncI0A9hOiQgAA9BQE6fRKkMxRBOvQsrnXHCc5zU3PQbxKVOWMHaxbQuVF8TjMsfBe/+L5YTrtr77cJDuVcFfrdLs1Kf5n9WAt0HkFN022Co8pz7GfPE62a9yvO59jXjXfZ1ghjs6bZ6Dl11+TfxjXZplqozFefPn3ymsKIBOgpCNAZSrfI/rT2Nnvebym8jootoCfz2aoLB56NdH6rv3fZ1ny2ej/i947XgzvFJrfnI52plzVVqs5nq8No5Xww0iF8Y5F8O/PZ6mFsNhrrM1CLnzZtaRH8J7FR/e1I14Ouw0fVG+XHNOK93UV0eEi3OSLWWrrz8iDB4fBzeP7CcwDUTSU6jEiAnoIAnSGpSGcoKtKhf0cjXedeW6i51ljz0V95PdhEbG4b65pRVaeEqHB+OtJn/nsB+vaixXv3GfjavPR7uYjKXDN2r4gN6mNsHr6Iew/6czTSdf4wa3eBWGsZ656XP3kX68kPPQdA/VSiw0gE6CkI0BmLinSGoiIdejTCdc5n+hYjVKN5PdiKa8Z+OZ/lms9WT6My/Unr5+IOFzE6wAz+Owy8xtbE83wGI9zbFbFOOHIHhpa97jrh2EwHbRGiwwgE6CkI0BmbIJ2hWPCFHg14nfNZ3kAsKp4N0ObyVcxnhm3fo7+OVuR9j4No4prhfJZNm/cbncd5OROeby7W2k56DhbPo1JZgD6Qge7tuvWZo+h0UgRB+mA+xH3GqesxtEmIDgMToKcgQCcLQTpDsfALPYrrXLfY/V0PP6X7rjjWKnBzPYdqxS2yktN8tuquGT/0cHBNXjPms9VJT9fgSbRw10K7RxGmH8Wflmf9vomgxnfMPUWweNrTs+ebuAcQpA2s53u7D/G6FrcuE+flTFePvfsQa1inNswAQnQYkAA9BQE62QjSGYogHXoW7WlP9xgAdC0DX2Sdy5jdfLY6jIq0fb4exxbP2ZcIe072uPj9LoKAJq8ZPVyD38Vn3gL6gOLafTRAd4Eszi9VOfq+35PYqHS8pyrd87i2auE8sj3f21UzLmGgLgw1u4j1qrfRAcS1GPhMiA4DEaCnIEAnK0E6QxGkwwDivu/4nte7i6goEZ7vSbweR/cMKi8i3DjxetCXPcyHNqPzkh2vwZMIz184n+OKZ4f19bu254f1d73PbY/iPXS8Q4eDd/Ea6QaUjHu7X7p0zTxuvKPHJrpK8/fx563NcsBthOgwAAF6CgJ0shOkMxRBOgwkqkyfxp/HNyxoXVxZxNHCtSfRLvjy63Hdd9H69Xgbr4dwg8HEe/Qw3qMPb7lf6oKdj5cqpnRHuMaVz/zDW8KWD1fOpw0zyVx6LdefjxKrLbUHHtGG92SuBYXZ8HuzuXvteL9fPi+therdZ3l9b/T20n/+0fUX2JYQHXomQE9BgE4pBOkMRZAOAECRonvD+k/WWcAfrmzKEsgCABRGiA49EqCnIECnNIJ0hiJIBwCgeFF1efXPkNXq6wrmdWj+XocIAIDyCdGhJwL0FATolEqQzlAE6QAAVCkq1idRsT6JtsYPL/2ud4Xt76789bot8Mf1HxXmAAD1EqJDDwToKQjQKZ0gnaEI0gEAAAAALvkzJwP2S4CeggCdGnQVEW+jNWG1os3h02iByDiez2erqq+ZAAAAAADbEKLDHgnQUxCgUxNBOkMRpAMAAAAABCE67IkAPQUBOjUSpDMUQToAAAAA0LyJEB32Q4CeggCdmgnSGYogHQAAAABonhAddiRAT0GATgsE6QxFkA4AAAAANE2IDjsQoKcgQKclgnSGIkgHAAAAAJolRId7EqCnIECnRYJ0hiJIBwAAAACaJESHexCgpyBAp2WCdIYiSAcAAAAAmiNEhy0J0FMQoIMgneEI0gEAAACApgjRYQsC9BQE6PAngnSGIkgHAAAAAJohRIcNCdBTEKDDLwnSGYogHQAAAABoghAdNiBAT0GADjcTpDMUQToAAAAAUD0hOtxBgJ6CAB3uJkhnKIJ0AAAAAKBqQnS4hQA9BQE6bE6QzlAE6QAAAABAtYTocAMBegoCdNieIJ2hCNIBAAAAgCoJ0eEaAvQUBOhwf4J0hiJIBwAAAACqI0SHKwToKQjQYXeCdIYiSAcAAAAAqiJEh0sE6CkI0GF/BOkMRZAOAAAAAFRDiA5BgJ6CAB32T5DOUATpAAAAAEAVhOggQM9CgA79EaQzFEE6AAAAAFA8ITrNE6CnIECH/gnSGYogHQAAAAAomhCdpgnQUxCgw3AE6QxFkA4AAAAAFOsjD0sJAAAW0UlEQVSrT58+efVoUoRIf/Dqj0qADuO46ELmxXL6vubz7/OXwqvFcnrc+kkAAAAAAMqiEp0mRYD+1qs/KgE6jEdFOkP5Lrq+AAAAAAAUQyU6zRFspiBAhxxUpDOEJt5nAAAAAEA9VKLToheClFEJ0CEPFekMoXufnca1EQAAAAAgPSE6TZnPVl2I8p1XfTQCdMhHkM4QHsUmNgAAAACA9ITotKbqADc5ATrkJUhnCN/V/h4DAAAAAOogRKcZ89mqq4B74BUfhQAd8hOkM4QTZxkAAAAAyO6rT58+eZGoXgScHyMkYlgCdCjLRRcyL5bT9zW/bj63o/pmsZy+bfj3BwAAAACSU4lOK44F6KMQoEN5VKTTN7PRAQAAAIDUhOi04tgrPTgBOpRLkE6fnsxnq6fOMAAAAACQlRCd6s1nqyNV6IMToEP5BOn06cjZBQAAAACyEqLTgkOv8qAE6FAPQTp9eR7XUgAAAACAdIToVC0W6J95lQcjQIf6CNLpi01uAAAAAEBKQnRqZ4F+OAJ0qJcgnT74jgYAAAAAUhKiU7unXuFBCNAZQhdsvnamRyNIZ998RwMAAAAAKQnRqZ0F+v4J0BlCF2g+XSynR4L0UQnS2aeD2t9LAAAAAECZhOhUK4LPB17hXgnQGcI6QO+CzYkgfXSCdPZJiA4AAAAApCNEp2YW5vslQGcIXwToa4L00QnS2ZeHziQAAAAAkI0QnZoJ0fsjQGcI1wboa4L00QnS2QdjVwAAAACAdITo1OzXXt1eCNAZwq0B+pogfXSCdAAAAAAAqiNEp2ZC9P0ToDOEjQL0NUH66ATp7OKJswcAAAAAZCNEp2baue+XAJ0hbBWgrwnSRydIBwAAAACgGkJ0YBMCdIZwrwB9TZA+OkE6AAAAAABVEKIDdxGgM4SdAvQ1QfroBOkAAAAAABRPiA7cRoDOEPYSoK8J0kcnSAcAAAAAoGhCdGr20au7EwE6Q9hrgL4mSB+dIB0AAAAAgGIJ0amZEP3+BOgMoZcAfU2QPjpBOptw3gAAAACAdITowFUCdIbQa4C+JkgfnSCdu/R6DQAAAAAAuA8hOjV769XdmgCdIQwSoK8J0kcnSOc2750dAAAAACAbITo10859OwJ0hjBogL4mSB+dIJ2b+K4GAAAAANIRolOtxXLaLcxfeIU3IkBnCKME6GuC9NEJ0rmOSnQAAAAAIB0hOrXT0v1uAnSGMGqAviZIH50gnavnyvc0AAAAAJCOEJ3anXmFbyVAZwgpAvQ1QfroBOmsvXEmAAAAAICMhOjUToXbzQToDCFVgL4mSB+dIJ2JjW4AAAAAQFZCdKoWc9GFF78kQGcIKQP0NUH66ATpCNEBAAAAgJSE6LTgxKv8BQE6Q0gdoK8J0kcnSG/Xm+zXBwAAAACgXUJ0WtBVul14pX8iQGcIRQToa4L00QnS21T1dxEAAAAAUDYhOtWL4MJivQCdYRQVoK8J0kcnSG/L+WI51codAAAAAEhLiE4rWm/pLkBnCEUG6GuC9NEJ0tvxouHfHQAAAAAogBCdJiyW04+TyeRlo6+2AJ0hFB2grwnSRydIr9957d9JAAAAAED5hOi05KTB2egCdIZQRYC+JkgfnSC9bkeN/b4AAAAAQIGE6DQjAouWFu8F6AyhqgB9TZA+OkF6nd4sltO3jfyuAAAAAEDBhOg0ZbGcnnWL+A38zgJ0hlBlgL4mSB+dIL0uF6rQAQAAAIBSCNFp0VHlbd0F6Ayh6gB9TZA+OkF6PQ5rv14AAAAAAPUQotOcS2FFjQToDKGJAH1NkD46QXr5XmrjDgAAAACURIhOkxbL6fsucK7sdxegM4SmAvQ1QfroBOnler1YTl9U9PsAAAAAAA346tOnT15nmjWfrbpg7HcV/P4CdIbQZIB+2Xy26j5nz/McUXMu4j34vuZfvKLr3YfFclr1xgcAAAAAoE4q0WlaBM+lV6QL0BlC8wH6REV6BirSy/Gh4tEpAAAAAEDlhOg0r+AgvavI/FqAzgAE6JcI0kcnSM/vtWsGAAAAAFAy7dwhzGerw8lkchoBTXbnk8nkUEtjBiBAv4HW7qNrqbV79157luBwNvFqsZwe5z9MAAAAAICbCdHhkqhsPE0e2r6ZTCZHtYeaAvQUBOh3EKSProkgffLze60Lpn9McCg3uYjvprOchwcAAAAAsDkhOlxjPlu9mEwmPyQ7N11A8WKxnJ4kOJZeCdBTEKBvSJA+upaC9Kwbvd5FgP4xwbEAAAAAAOxMiA43iLCiC6yfJDhH3XzZ4xYCTQF6CgL0LQnSR9dMkD7500av4wTjR87ju0n1OQAAAABQFSE63GE+Wz3tKsBHCtPfRfX52xZeJwF6CgL0exKkj661IP3XEaSPEaZfxCazE9cKAAAAAKBGQnTYUITpXVjxrOdz1oUTZxGeN9MaV4CeggB9R4L00TUVpE++DNOPJpPJg55/3IcIz89cJwAAAACAmgnRYUvz2erhZDI5jD/7qk6/iAD5rMVwQoCeggB9TwTpo2suSF+LzV5dmP50j4H6h7g+n7Z4TgEAAACANgnRYQcR/j6OwKL7z4cbBsFdm/Y/RjDxvpV27dcRoKcgQN8zQfromg3S12LD1/q7af3nrrbv3YzzrgPK+/jztqWOKAAAAAAAa0J06EkEGA8v/ds/CiO+JEBPQYDeE0H66JoP0m8SFeuftbyRCwAAAADgOkJ0YBQC9BQE6D0TpI9OkA4AAAAAwNb+zCkDhiZAT0GAPoDFctrNp35d/S+aV9e+/O18tnrc+okAAAAAAGBzQnRgUAL0FAToAxKkj06QDgAAAADAVoTowGAE6CkI0EcgSB+dIB0AAAAAgI0J0YFBCNBTEKCPSJA+OkE6AAAAAAAbEaIDvROgpyBAT0CQPjpBOgAAAAAAdxKiA70SoKcgQE9EkD46QToAAAAAALcSogO9EaCnIEBPSJA+OkE6AAAAAAA3EqIDvRCgpyBAT0yQPjpBOgAAAAAA1xKiA3snQE9BgF4AQfroBOkAAAAAAPyCEB3YKwF6CgL0ggjSRydIBwAAAADgC0J0YG8E6CkI0AskSB+dIB0AAAAAgM+E6MBeCNBTEKAXTJA+OkE6AAAAAAA/EaIDOxOgpyBAr4AgfXSCdAAAAAAAhOjAbgToKQjQKyJIH50gHQAAAACgcUJ04N4E6CkI0CskSB+dIB0AAAAAoGFCdOBeBOgpCNArJkgfnSAdAAAAAKBRQnRgawL0FAToDRCkj06QDgAAAADQICE6sBUBegoC9IYI0kcnSAcAAAAAaIwQHdjWiQB9VAL0BgnSR7cO0h82fh4AAAAAAJogRAc2Np+tTieTyXNnbDQC9IYJ0kfXBeln0Y0DAAAAAICKCdGBjcxnqyMB+qgE6AjSx9d14Tht/SQAAAAAANROiA7cKWYBnzhToxGg85kgfXTP5rPVcePnAAAAAACgakJ0YBOn0cqY4QnQ+QVB+uhemI8OAAAAAFAvITpwq6i4fOQsjUKAzo0E6aM60NYdAAAAAKBeX3369MnLC1xrPlv9ejKZfFSFPgoBOhuZz1ZdmPvc2RrFbxfL6VmDvzcAAAAAQNVUogO3ORGgj0KAzsZUpI/qpOHfHQAAAACgWkJ04Fox71d16/AE6GxNkD6aB/PZ6qjR3x0AAAAAoFpCdOAmgqHhCdC5N0H6aF40+nsDAAAAAFRLiA7c5NiZGZQAnZ0J0kfRVaM/bfD3BgAAAAColhAd+IVoT2wW+nAE6OyNIH0UOncAAAAAAFREiA5c59BZGYwAnb0TpA/ONRMAAAAAoCJCdOA6z5yVQQjQ6Y0gfVAH89lKkA4AAAAAUAkhOvAFQdBgBOj0TpA+KNdOAAAAAIBKCNGBq546I70ToDMYQfpgHjfyewIAAAAAVE+IDlwlCOqXAJ3BCdIH8Wg+W/26gd8TAAAAAKB6QnTgqifOSG8E6IxGkD4Im5AAAAAAACogRAc+U0XZKwE6oxOk906IDgAAAABQASE6cJkAqB8CdNIQpPfKRiQAAAAAgAoI0QH6JUAnHUF6bx5W+nsBAAAAADRFiA5cphJ9vwTopCVI74UQHQAAAACgAkJ04DKtiPdHgE56gnQAAAAAAPglITrA/gnQKYYgHQAAAAAAviREB9gvATrFEaQDAAAAAMCfCNGBy947GzsRoFMsQToAAAAAAPxMiA5cJvy9PwE6xROk78xGJAAAAACACgjRAXYnQKcagvSduAYAAAAAAFRAiA58tlhO3zobWxOgUx1B+r19LPS4AQAAAAC4RIgOXHXujGxMgE61BOn3IkQHAAAAAKiAEB24ykzfzQjQqZ4gfTu6eQAAAAAA1EGIDlwlRL+bAJ1mCNI39q6Q4wQAAAAA4A5CdOCqM2fkVgJ0miNI34gqdAAAAACASgjRgS8sltOuEv3CWbmWAJ1mCdLvZAMSAAAAAEAlhOjAdYRBvyRAp3mC9BudxwYkAAAAAAAqIEQHrnPqrHxBgA5BkH4tG48AAAAAACoiRAd+YbGcdrN9z52ZnwjQ4QpB+i+cJDseAAAAAAB2IEQHbvLCmRGgw00E6Z+9WyynH5McCwAAAAAAeyBEB661WE5PG69GF6DDHQTpP7HhCAAAAACgMkJ04DathkMCdNhQ40H6uxh/AQAAAABARYTowI0arUYXoMOWGg7SjxMcAwAAAAAAeyZEB+5y1NAZEqDDPTUYpL9aLKfvExwHAAAAAAB7JkQHbhWtil81cJYE6LCjhoL0c7PQAQAAAADqJUQHNvGi8rbuAnTYk0aC9EPXCwAAAACAegnRgTtFWHQ4mUwuKjxbAnTYs8qD9O+1cQcAAAAAqJsQHdhIhEbHlZ0tATr0pNIg/fViOT1JcBwAAAAAAPToq0+fPjm/wMbms1UXjP2ugjMmQIcBzGer08lk8ryCc/1msZweJjgOAAAAAAB6phId2MpiOe0CsW8LP2sCdBhIJRXp3TXjKMFxAAAAAAAwACE6sLXCg/R3AnQYVgTppV4zXrtmAAAAAAC0RTt34N6itXs3H/igkLP4OsI8YAQFjoNwzQAAAAAAaJAQHdjJfLZ6PJlMziaTyYPkZ/LbqKAHRlTINeNiMpkcu2YAAAAAALRJO3dgJ4vl9P1kMulCsVdJz2Q3y/hrYRjkcOma8SbpS/Ih2re7ZgAAAAAANEolOrA389nq6WQyOU1SYdpVkp4sltMXCY4FuIZrBgAAAAAAGQnRgb2bz1bHk8nkxYiz0l93P3+xnH706kJ+89mqu14cj3zN6Nq3/9HbBQAAAAAAITrQi/ls9evJZHIYYfoQVaYXMWdZeA4FimvGUYTpQ10zTqP63DUDAAAAAIDPhOhA76Jl81GE6vuuNH0T4fmZKlKog2sGAAAAAABjEqIDg5rPVo8jGOtCssf3CMjeTSaT95PJ5G33RwgGdYtA/alrBgAAAAAAQxGiA6OKFs6P4xi6//z1leN5G//5UctlwDUDAAAAAIC+CdEBAAAAAAAAIPyZEwEAAAAAAAAAPxOiAwAAAAAAAEAQogMAAAAAAABAEKIDAAAAAAAAQBCiAwAAAAAAAEAQogMAAAAAAABAEKIDAAAAAAAAQBCiAwAAAAAAAEAQogMAAAAAAABAEKIDAAAAAAAAQBCiAwAAAAAAAEAQogMAAAAAAABAEKIDAAAAAAAAQBCiAwAAAAAAAEAQogMAAAAAAABAEKIDAAAAAAAAQBCiAwAAAAAAAEAQogMAAAAAAABAEKIDAAAAAAAAQBCiAwAAAAAAAEAQogMAAAAAAABAEKIDAAAAAAAAQBCiAwAAAAAAAEAQogMAAAAAAABAEKIDAAAAAAAAQBCiAwAAAAAAAEAQogMAAAAAAABAEKIDAAAAAAAAQBCiAwAAAAAAAEAQogMAAAAAAABAEKIDAAAAAAAAQBCiAwAAAAAAAEAQogMAAAAAAABAEKIDAAAAAAAAQBCiAwAAAAAAAEAQogMAAAAAAABAEKIDAAAAAAAAQBCiAwAAAAAAAEAQogMAAAAAAABAEKIDAAAAAAAAQBCiAwAAAAAAAEAQogMAAAAAAABAEKIDAAAAAAAAQBCiAwAAAAAAAEAQogMAAAAAAABAEKIDAAAAAAAAQBCiAwAAAAAAAEAQogMAAAAAAABAEKIDAAAAAAAAQBCiAwAAAAAAAEAQogMAAAAAAABAEKIDAAAAAAAAQBCiAwAAAAAAAEAQogMAAAAAAABAEKIDAAAAAAAAQBCiAwAAAAAAAEAQogMAAAAAAABAEKIDAAAAAAAAQBCiAwAAAAAAAEAQogMAAAAAAABAEKIDAMD/354dkAAAwEAQ+v6px+BiaA0BAAAAACLRAQAAAAAAACASHQAAAAAAAAAi0QEAAAAAAAAgEh0AAAAAAAAAItEBAAAAAAAAIBIdAAAAAAAAACLRAQAAAAAAACASHQAAAAAAAAAi0QEAAAAAAAAgEh0AAAAAAAAAItEBAAAAAAAAIBIdAAAAAAAAACLRAQAAAAAAACASHQAAAAAAAAAi0QEAAAAAAAAgEh0AAAAAAAAAItEBAAAAAAAAIBIdAAAAAAAAACLRAQAAAAAAACASHQAAAAAAAAAi0QEAAAAAAAAgEh0AAAAAAAAAItEBAAAAAAAAIBIdAAAAAAAAACLRAQAAAAAAACASHQAAAAAAAAAi0QEAAAAAAAAgEh0AAAAAAAAAItEBAAAAAAAAIBIdAAAAAAAAACLRAQAAAAAAACASHQAAAAAAAAAi0QEAAAAAAAAgEh0AAAAAAAAAItEBAAAAAAAAIBIdAAAAAAAAACLRAQAAAAAAACASHQAAAAAAAAAi0QEAAAAAAAAgEh0AAAAAAAAAItEBAAAAAAAAIBIdAAAAAAAAACLRAQAAAAAAACASHQAAAAAAAAAi0QEAAAAAAAAgEh0AAAAAAAAAItEBAAAAAAAAIBIdAAAAAAAAACLRAQAAAAAAACASHQAAAAAAAAAi0QEAAAAAAAAgEh0AAAAAAAAAItEBAAAAAAAAIBIdAAAAAAAAACLRAQAAAAAAACASHQAAAAAAAAAi0QEAAAAAAAAgEh0AAAAAAAAAItEBAAAAAAAAIBIdAAAAAAAAACLRAQAAAAAAACASHQAAAAAAAAAi0QEAAAAAAAAgEh0AAAAAAAAAItEBAAAAAAAAIBIdAAAAAAAAACLRAQAAAAAAACASHQAAAAAAAAAi0QEAAAAAAAAgEh0AAAAAAAAAItEBAAAAAAAAIBIdAAAAAAAAACLRAQAAAAAAACASHQAAAAAAAAAi0QEAAAAAAAAgEh0AAAAAAAAAItEBAAAAAAAAIBIdAAAAAAAAACLRAQAAAAAAACASHQAAAAAAAAAi0QEAAAAAAAAgEh0AAAAAAAAAItEBAAAAAAAAIBIdAAAAAAAAACLRAQAAAAAAACASHQAAAAAAAAAi0QEAAAAAAAAgEh0AAAAAAAAAItEBAAAAAAAAIBIdAAAAAAAAACLRAQAAAAAAACASHQAAAAAAAAAi0QEAAAAAAAAgEh0AAAAAAAAAItEBAAAAAAAAIBIdAAAAAAAAACLRAQAAAAAAACASHQAAAAAAAAAi0QEAAAAAAAAgEh0AAAAAAAAAItEBAAAAAAAAIBIdAAAAAAAAACLRAQAAAAAAACASHQAAAAAAAAAi0QEAAAAAAAAgEh0AAAAAAAAAItEBAAAAAAAAIBIdAAAAAAAAACLRAQAAAAAAACASHQAAAAAAAAAi0QEAAAAAAAAgEh0AAAAAAAAAItEBAAAAAAAAIBIdAAAAAAAAACLRAQAAAAAAAOBtOzQMpx5P16beAAAAAElFTkSuQmCC;fontColor=#663CDC;" parent="KhpNlNvxDwqMAziko4fs-2" vertex="1">
          <mxGeometry y="65.49" width="96.12" height="44.25" as="geometry" />
        </mxCell>
        <mxCell id="nSrNMcFc9yxEUsw325EZ-3" value="&lt;font color=&quot;#ffffff&quot;&gt;&lt;span&gt;&lt;br&gt;&lt;/span&gt;&lt;/font&gt;" style="ellipse;whiteSpace=wrap;html=1;aspect=fixed;fillColor=#663CDC;strokeColor=none;gradientDirection=north;" parent="KhpNlNvxDwqMAziko4fs-2" vertex="1">
          <mxGeometry x="295.97" y="-0.7599999999999909" width="20" height="20" as="geometry" />
        </mxCell>
        <mxCell id="nSrNMcFc9yxEUsw325EZ-5" style="edgeStyle=orthogonalEdgeStyle;rounded=0;orthogonalLoop=1;jettySize=auto;html=1;exitX=0.703;exitY=0;exitDx=0;exitDy=0;entryX=0.5;entryY=1;entryDx=0;entryDy=0;endArrow=classic;endFill=1;exitPerimeter=0;startArrow=none;startFill=0;dashed=1;" parent="KhpNlNvxDwqMAziko4fs-2" edge="1">
          <mxGeometry relative="1" as="geometry">
            <mxPoint x="305.6205000000001" y="49.24000000000012" as="sourcePoint" />
            <mxPoint x="305.66999999999996" y="19.24000000000001" as="targetPoint" />
          </mxGeometry>
        </mxCell>
        <mxCell id="OPiwrHlcYEh3rDxegb-4-0" value="" style="group" parent="KhpNlNvxDwqMAziko4fs-1" vertex="1" connectable="0">
          <mxGeometry x="480" y="200" width="80" height="90" as="geometry" />
        </mxCell>
        <mxCell id="OPiwrHlcYEh3rDxegb-4-1" value="&lt;font color=&quot;#663cdc&quot;&gt;&amp;nbsp; &amp;nbsp; &amp;nbsp; &amp;nbsp; &amp;nbsp; &amp;nbsp; Central&lt;br&gt;Server&lt;/font&gt;" style="rounded=1;whiteSpace=wrap;html=1;strokeWidth=2;fillColor=none;strokeColor=#663CDC;" parent="OPiwrHlcYEh3rDxegb-4-0" vertex="1">
          <mxGeometry width="80" height="79.24375" as="geometry" />
        </mxCell>
        <mxCell id="OPiwrHlcYEh3rDxegb-4-2" value="" style="shape=image;verticalLabelPosition=bottom;labelBackgroundColor=#ffffff;verticalAlign=top;aspect=fixed;imageAspect=0;image=data:image/svg+xml,PHN2ZyB4bWxucz0iaHR0cDovL3d3dy53My5vcmcvMjAwMC9zdmciIHdpZHRoPSIxOCIgaGVpZ2h0PSIxOCIgdmlld0JveD0iMCAwIDE4IDE4IiBmaWxsPSJub25lIj4mI3hhOzxwYXRoIGQ9Ik0xNyAxMEgxQzAuNDUgMTAgMCAxMC40NSAwIDExVjE3QzAgMTcuNTUgMC40NSAxOCAxIDE4SDE3QzE3LjU1IDE4IDE4IDE3LjU1IDE4IDE3VjExQzE4IDEwLjQ1IDE3LjU1IDEwIDE3IDEwWk00IDE2QzIuOSAxNiAyIDE1LjEgMiAxNEMyIDEyLjkgMi45IDEyIDQgMTJDNS4xIDEyIDYgMTIuOSA2IDE0QzYgMTUuMSA1LjEgMTYgNCAxNlpNMTcgMEgxQzAuNDUgMCAwIDAuNDUgMCAxVjdDMCA3LjU1IDAuNDUgOCAxIDhIMTdDMTcuNTUgOCAxOCA3LjU1IDE4IDdWMUMxOCAwLjQ1IDE3LjU1IDAgMTcgMFpNNCA2QzIuOSA2IDIgNS4xIDIgNEMyIDIuOSAyLjkgMiA0IDJDNS4xIDIgNiAyLjkgNiA0QzYgNS4xIDUuMSA2IDQgNloiIGZpbGw9IiM2NjNDREMiLz4mI3hhOzwvc3ZnPg==;strokeColor=#663CDC;fillColor=none;" parent="OPiwrHlcYEh3rDxegb-4-0" vertex="1">
          <mxGeometry x="32" y="13.594221152633054" width="17.927321668909826" height="17.927321668909826" as="geometry" />
        </mxCell>
        <mxCell id="OPiwrHlcYEh3rDxegb-4-9" value="" style="group" parent="KhpNlNvxDwqMAziko4fs-1" vertex="1" connectable="0">
          <mxGeometry x="200" y="200" width="80" height="80" as="geometry" />
        </mxCell>
        <mxCell id="OPiwrHlcYEh3rDxegb-4-10" value="&lt;font color=&quot;#948da8&quot;&gt;&lt;br&gt;Certification&lt;br&gt;Authority&lt;/font&gt;" style="ellipse;whiteSpace=wrap;html=1;aspect=fixed;gradientDirection=north;fillColor=none;strokeWidth=2;strokeColor=#948DA8;" parent="OPiwrHlcYEh3rDxegb-4-9" vertex="1">
          <mxGeometry width="80" height="80" as="geometry" />
        </mxCell>
        <mxCell id="OPiwrHlcYEh3rDxegb-4-11" value="" style="shape=image;verticalLabelPosition=bottom;labelBackgroundColor=#ffffff;verticalAlign=top;aspect=fixed;imageAspect=0;image=data:image/svg+xml,PHN2ZyB4bWxucz0iaHR0cDovL3d3dy53My5vcmcvMjAwMC9zdmciIHhtbG5zOnhsaW5rPSJodHRwOi8vd3d3LnczLm9yZy8xOTk5L3hsaW5rIiB3aWR0aD0iMjJweCIgaGVpZ2h0PSIyMXB4IiB2aWV3Qm94PSIwIDAgMjIgMjEiIHZlcnNpb249IjEuMSI+JiN4YTsgICAgPCEtLSBHZW5lcmF0b3I6IFNrZXRjaCA1OCAoODQ2NjMpIC0gaHR0cHM6Ly9za2V0Y2guY29tIC0tPiYjeGE7ICAgIDx0aXRsZT5TaGFwZTwvdGl0bGU+JiN4YTsgICAgPGRlc2M+Q3JlYXRlZCB3aXRoIFNrZXRjaC48L2Rlc2M+JiN4YTsgICAgPGcgaWQ9IlN0eWxlZ3VpZGUtJmFtcDstVHlwZXBhZ2VzIiBzdHJva2U9Im5vbmUiIHN0cm9rZS13aWR0aD0iMSIgZmlsbD0ibm9uZSIgZmlsbC1ydWxlPSJldmVub2RkIj4mI3hhOyAgICAgICAgPGcgaWQ9Ikljb25zIiB0cmFuc2Zvcm09InRyYW5zbGF0ZSgtNTcxLjAwMDAwMCwgLTgwMy4wMDAwMDApIiBmaWxsPSIjNjYzQ0RDIj4mI3hhOyAgICAgICAgICAgIDxwYXRoIGQ9Ik01ODIsODAzIEw1ODAuMDIxNDg0LDgwNC45MTIxMDkgTDU3Ny4yOTg4MjgsODA0LjUyNzM0NCBMNTc2LjgyMjI2Niw4MDcuMjM4MjgxIEw1NzQuMzkyNTc4LDgwOC41MjczNDQgTDU3NS41OTk2MDksODExIEw1NzQuMzkyNTc4LDgxMy40NzI2NTYgTDU3Ni44MjIyNjYsODE0Ljc2MTcxOSBMNTc3LjI5ODgyOCw4MTcuNDcyNjU2IEw1ODAuMDIzNDM4LDgxNy4wODc4OTEgTDU4Miw4MTkgTDU4My45Nzg1MTYsODE3LjA4Nzg5MSBMNTg2LjcwMzEyNSw4MTcuNDcyNjU2IEw1ODcuMTc3NzM0LDgxNC43NjE3MTkgTDU4OS42MDkzNzUsODEzLjQ3MjY1NiBMNTg4LjQwMDM5MSw4MTEgTDU4OS42MDc0MjIsODA4LjUyNzM0NCBMNTg3LjE3NzczNCw4MDcuMjM4MjgxIEw1ODYuNzAxMTcyLDgwNC41MjczNDQgTDU4My45NzY1NjIsODA0LjkxMjEwOSBMNTgyLDgwMyBaIE01NzQuOTgyNDIyLDgxNi4wMTc1NzggTDU3MSw4MjAgTDU3NCw4MjEgTDU3NSw4MjQgTDU3OS41ODk4NDQsODE5LjQxMDE1NiBMNTc5LjM0Mzc1LDgxOS4xNzU3ODEgTDU3OC4xMTcxODgsODE5LjM0NzY1NiBDNTc3Ljk5NzE4Nyw4MTkuMzY0NjU2IDU3Ny44Nzk3MTksODE5LjM3MzA0NyA1NzcuNzYxNzE5LDgxOS4zNzMwNDcgQzU3Ni41MjU3MTksODE5LjM3MzA0NyA1NzUuNDcyNzY2LDgxOC40ODg0ODQgNTc1LjI1OTc2Niw4MTcuMjcxNDg0IEw1NzUuMDQ2ODc1LDgxNi4wNTI3MzQgTDU3NC45ODI0MjIsODE2LjAxNzU3OCBaIE01ODkuMDE3NTc4LDgxNi4wMTc1NzggTDU4OC45NTMxMjUsODE2LjA1MjczNCBMNTg4Ljc0MDIzNCw4MTcuMjcxNDg0IEM1ODguNTI2MjM0LDgxOC40ODk0ODQgNTg3LjQ3NDI4MSw4MTkuMzczMDQ3IDU4Ni4yMzgyODEsODE5LjM3MzA0NyBDNTg2LjEyMDI4MSw4MTkuMzczMDQ3IDU4Ni4wMDI4MTMsODE5LjM2NDY1NiA1ODUuODgyODEyLDgxOS4zNDc2NTYgTDU4NC42NTYyNSw4MTkuMTc1NzgxIEw1ODQuNDEwMTU2LDgxOS40MTIxMDkgTDU4OSw4MjQgTDU5MCw4MjEgTDU5Myw4MjAgTDU4OS4wMTc1NzgsODE2LjAxNzU3OCBaIiBpZD0iU2hhcGUiLz4mI3hhOyAgICAgICAgPC9nPiYjeGE7ICAgIDwvZz4mI3hhOzwvc3ZnPg==;" parent="OPiwrHlcYEh3rDxegb-4-9" vertex="1">
          <mxGeometry x="29" y="10.730000000000018" width="22" height="21" as="geometry" />
        </mxCell>
        <mxCell id="OPiwrHlcYEh3rDxegb-4-12" value="" style="group" parent="KhpNlNvxDwqMAziko4fs-1" vertex="1" connectable="0">
          <mxGeometry x="80" y="199" width="80" height="80" as="geometry" />
        </mxCell>
        <mxCell id="OPiwrHlcYEh3rDxegb-4-13" value="&lt;font color=&quot;#948da8&quot;&gt;&lt;br&gt;Time-stamping&lt;br&gt;Service&lt;/font&gt;" style="ellipse;whiteSpace=wrap;html=1;aspect=fixed;gradientDirection=north;fillColor=none;strokeWidth=2;strokeColor=#948DA8;" parent="OPiwrHlcYEh3rDxegb-4-12" vertex="1">
          <mxGeometry width="80" height="80" as="geometry" />
        </mxCell>
        <mxCell id="OPiwrHlcYEh3rDxegb-4-14" value="" style="shape=image;verticalLabelPosition=bottom;labelBackgroundColor=#ffffff;verticalAlign=top;aspect=fixed;imageAspect=0;image=data:image/svg+xml,PHN2ZyB4bWxucz0iaHR0cDovL3d3dy53My5vcmcvMjAwMC9zdmciIHhtbG5zOnhsaW5rPSJodHRwOi8vd3d3LnczLm9yZy8xOTk5L3hsaW5rIiB3aWR0aD0iMjBweCIgaGVpZ2h0PSIyMHB4IiB2aWV3Qm94PSIwIDAgMjAgMjAiIHZlcnNpb249IjEuMSI+JiN4YTsgICAgPCEtLSBHZW5lcmF0b3I6IFNrZXRjaCA1OCAoODQ2NjMpIC0gaHR0cHM6Ly9za2V0Y2guY29tIC0tPiYjeGE7ICAgIDx0aXRsZT5Hcm91cCAzPC90aXRsZT4mI3hhOyAgICA8ZGVzYz5DcmVhdGVkIHdpdGggU2tldGNoLjwvZGVzYz4mI3hhOyAgICA8ZyBpZD0iU3R5bGVndWlkZS0mYW1wOy1UeXBlcGFnZXMiIHN0cm9rZT0ibm9uZSIgc3Ryb2tlLXdpZHRoPSIxIiBmaWxsPSJub25lIiBmaWxsLXJ1bGU9ImV2ZW5vZGQiPiYjeGE7ICAgICAgICA8ZyBpZD0iSWNvbnMiIHRyYW5zZm9ybT0idHJhbnNsYXRlKC05NzIuMDAwMDAwLCAtODA1LjAwMDAwMCkiIGZpbGw9IiM5NDhEQTgiPiYjeGE7ICAgICAgICAgICAgPGcgaWQ9Ikdyb3VwLTMiIHRyYW5zZm9ybT0idHJhbnNsYXRlKDk3Mi4wMDAwMDAsIDgwNS4wMDAwMDApIj4mI3hhOyAgICAgICAgICAgICAgICA8cGF0aCBkPSJNOS45OSwwIEM0LjQ3LDAgMCw0LjQ4IDAsMTAgQzAsMTUuNTIgNC40NywyMCA5Ljk5LDIwIEMxNS41MiwyMCAyMCwxNS41MiAyMCwxMCBDMjAsNC40OCAxNS41MiwwIDkuOTksMCBaIE0xMCwxOCBDNS41OCwxOCAyLDE0LjQyIDIsMTAgQzIsNS41OCA1LjU4LDIgMTAsMiBDMTQuNDIsMiAxOCw1LjU4IDE4LDEwIEMxOCwxNC40MiAxNC40MiwxOCAxMCwxOCBaIiBpZD0iU2hhcGUtQ29weS04Ii8+JiN4YTsgICAgICAgICAgICAgICAgPHBvbHlnb24gaWQ9IlBhdGgtQ29weSIgcG9pbnRzPSIxMC41IDUgOSA1IDkgMTEgMTQuMjUgMTQuMTUgMTUgMTIuOTIgMTAuNSAxMC4yNSIvPiYjeGE7ICAgICAgICAgICAgPC9nPiYjeGE7ICAgICAgICA8L2c+JiN4YTsgICAgPC9nPiYjeGE7PC9zdmc+;fontFamily=Helvetica;fontSize=12;fontColor=#000000;align=center;strokeColor=#000000;fillColor=#ffffff;" parent="OPiwrHlcYEh3rDxegb-4-12" vertex="1">
          <mxGeometry x="30" y="4.730000000000018" width="20" height="20" as="geometry" />
        </mxCell>
        <mxCell id="OPiwrHlcYEh3rDxegb-4-18" value="" style="group" parent="KhpNlNvxDwqMAziko4fs-1" vertex="1" connectable="0">
          <mxGeometry x="597" y="201" width="80" height="79.24374999999998" as="geometry" />
        </mxCell>
        <mxCell id="OPiwrHlcYEh3rDxegb-4-19" value="&lt;font color=&quot;#663cdc&quot;&gt;&amp;nbsp; &amp;nbsp; &amp;nbsp; &amp;nbsp; &amp;nbsp; &amp;nbsp; Configuration&lt;br&gt;Proxy&lt;br&gt;&lt;/font&gt;" style="rounded=1;whiteSpace=wrap;html=1;strokeWidth=2;fillColor=none;strokeColor=#663CDC;" parent="OPiwrHlcYEh3rDxegb-4-18" vertex="1">
          <mxGeometry width="80" height="79.24375" as="geometry" />
        </mxCell>
        <mxCell id="OPiwrHlcYEh3rDxegb-4-20" value="" style="shape=image;verticalLabelPosition=bottom;labelBackgroundColor=#ffffff;verticalAlign=top;aspect=fixed;imageAspect=0;image=data:image/svg+xml,PHN2ZyB4bWxucz0iaHR0cDovL3d3dy53My5vcmcvMjAwMC9zdmciIHhtbG5zOnhsaW5rPSJodHRwOi8vd3d3LnczLm9yZy8xOTk5L3hsaW5rIiB3aWR0aD0iMThweCIgaGVpZ2h0PSIxMnB4IiB2aWV3Qm94PSIwIDAgMTggMTIiIHZlcnNpb249IjEuMSI+JiN4YTsgICAgPCEtLSBHZW5lcmF0b3I6IFNrZXRjaCA1OCAoODQ2NjMpIC0gaHR0cHM6Ly9za2V0Y2guY29tIC0tPiYjeGE7ICAgIDx0aXRsZT5TaGFwZTwvdGl0bGU+JiN4YTsgICAgPGRlc2M+Q3JlYXRlZCB3aXRoIFNrZXRjaC48L2Rlc2M+JiN4YTsgICAgPGcgaWQ9IlN0eWxlZ3VpZGUtJmFtcDstVHlwZXBhZ2VzIiBzdHJva2U9Im5vbmUiIHN0cm9rZS13aWR0aD0iMSIgZmlsbD0ibm9uZSIgZmlsbC1ydWxlPSJldmVub2RkIj4mI3hhOyAgICAgICAgPGcgaWQ9Ikljb25zIiB0cmFuc2Zvcm09InRyYW5zbGF0ZSgtNzY3LjAwMDAwMCwgLTY1OC4wMDAwMDApIiBmaWxsPSIjNjYzQ0RDIiBmaWxsLXJ1bGU9Im5vbnplcm8iPiYjeGE7ICAgICAgICAgICAgPHBhdGggZD0iTTc2OCw2NjggTDc4NCw2NjggQzc4NC41NTIyODUsNjY4IDc4NSw2NjguNDQ3NzE1IDc4NSw2NjkgQzc4NSw2NjkuNTUyMjg1IDc4NC41NTIyODUsNjcwIDc4NCw2NzAgTDc2OCw2NzAgQzc2Ny40NDc3MTUsNjcwIDc2Nyw2NjkuNTUyMjg1IDc2Nyw2NjkgQzc2Nyw2NjguNDQ3NzE1IDc2Ny40NDc3MTUsNjY4IDc2OCw2NjggWiBNNzg0LDY1OCBMNzY4LDY1OCBDNzY3LjQ1LDY1OCA3NjcsNjU4LjQ1IDc2Nyw2NTkgTDc2Nyw2NjUgQzc2Nyw2NjUuNTUgNzY3LjQ1LDY2NiA3NjgsNjY2IEw3ODQsNjY2IEM3ODQuNTUsNjY2IDc4NSw2NjUuNTUgNzg1LDY2NSBMNzg1LDY1OSBDNzg1LDY1OC40NSA3ODQuNTUsNjU4IDc4NCw2NTggWiBNNzcxLDY2NCBDNzY5LjksNjY0IDc2OSw2NjMuMSA3NjksNjYyIEM3NjksNjYwLjkgNzY5LjksNjYwIDc3MSw2NjAgQzc3Mi4xLDY2MCA3NzMsNjYwLjkgNzczLDY2MiBDNzczLDY2My4xIDc3Mi4xLDY2NCA3NzEsNjY0IFoiIGlkPSJTaGFwZSIvPiYjeGE7ICAgICAgICA8L2c+JiN4YTsgICAgPC9nPiYjeGE7PC9zdmc+;" parent="OPiwrHlcYEh3rDxegb-4-18" vertex="1">
          <mxGeometry x="31" y="14.730000000000018" width="18" height="12" as="geometry" />
        </mxCell>
        <mxCell id="OPiwrHlcYEh3rDxegb-4-22" style="edgeStyle=orthogonalEdgeStyle;rounded=0;orthogonalLoop=1;jettySize=auto;html=1;exitX=0.25;exitY=1;exitDx=0;exitDy=0;entryX=0.5;entryY=0;entryDx=0;entryDy=0;endArrow=none;endFill=0;" parent="KhpNlNvxDwqMAziko4fs-1" source="OPiwrHlcYEh3rDxegb-4-1" target="OPiwrHlcYEh3rDxegb-4-21" edge="1">
          <mxGeometry relative="1" as="geometry" />
        </mxCell>
        <mxCell id="OPiwrHlcYEh3rDxegb-4-23" style="edgeStyle=orthogonalEdgeStyle;rounded=0;orthogonalLoop=1;jettySize=auto;html=1;exitX=0.75;exitY=1;exitDx=0;exitDy=0;entryX=0.5;entryY=0;entryDx=0;entryDy=0;endArrow=none;endFill=0;" parent="KhpNlNvxDwqMAziko4fs-1" source="OPiwrHlcYEh3rDxegb-4-1" target="OPiwrHlcYEh3rDxegb-4-16" edge="1">
          <mxGeometry relative="1" as="geometry" />
        </mxCell>
        <mxCell id="OPiwrHlcYEh3rDxegb-4-24" style="edgeStyle=orthogonalEdgeStyle;rounded=0;orthogonalLoop=1;jettySize=auto;html=1;exitX=0.5;exitY=1;exitDx=0;exitDy=0;entryX=1;entryY=0.5;entryDx=0;entryDy=0;endArrow=none;endFill=0;" parent="KhpNlNvxDwqMAziko4fs-1" source="OPiwrHlcYEh3rDxegb-4-19" target="OPiwrHlcYEh3rDxegb-4-16" edge="1">
          <mxGeometry relative="1" as="geometry" />
        </mxCell>
        <mxCell id="OPiwrHlcYEh3rDxegb-4-32" style="edgeStyle=orthogonalEdgeStyle;rounded=0;orthogonalLoop=1;jettySize=auto;html=1;exitX=0.25;exitY=1;exitDx=0;exitDy=0;entryX=0.5;entryY=0;entryDx=0;entryDy=0;endArrow=none;endFill=0;" parent="KhpNlNvxDwqMAziko4fs-1" edge="1">
          <mxGeometry relative="1" as="geometry">
            <mxPoint x="239.65999999999997" y="281.2437500000001" as="sourcePoint" />
            <mxPoint x="239.65999999999997" y="312" as="targetPoint" />
          </mxGeometry>
        </mxCell>
        <mxCell id="OPiwrHlcYEh3rDxegb-4-33" style="edgeStyle=orthogonalEdgeStyle;rounded=0;orthogonalLoop=1;jettySize=auto;html=1;exitX=0.25;exitY=1;exitDx=0;exitDy=0;entryX=0.5;entryY=0;entryDx=0;entryDy=0;endArrow=none;endFill=0;" parent="KhpNlNvxDwqMAziko4fs-1" edge="1">
          <mxGeometry relative="1" as="geometry">
            <mxPoint x="119.66000000000003" y="279.0037500000001" as="sourcePoint" />
            <mxPoint x="119.66000000000003" y="309.76" as="targetPoint" />
          </mxGeometry>
        </mxCell>
        <mxCell id="OPiwrHlcYEh3rDxegb-4-40" value="Message&lt;br&gt;Transport&lt;br&gt;Protocol" style="text;html=1;strokeColor=none;fillColor=none;align=center;verticalAlign=middle;whiteSpace=wrap;rounded=0;fontColor=#663CDC;" parent="KhpNlNvxDwqMAziko4fs-1" vertex="1">
          <mxGeometry x="260" y="290" width="120" height="20" as="geometry" />
        </mxCell>
        <mxCell id="OPiwrHlcYEh3rDxegb-4-41" value="OCSP&lt;br&gt;(RFC 6960)" style="text;html=1;strokeColor=none;fillColor=none;align=center;verticalAlign=middle;whiteSpace=wrap;rounded=0;fontColor=#663CDC;" parent="KhpNlNvxDwqMAziko4fs-1" vertex="1">
          <mxGeometry x="151" y="286" width="100" height="20" as="geometry" />
        </mxCell>
        <mxCell id="OPiwrHlcYEh3rDxegb-4-57" value="TSP&lt;br&gt;(RFC 3161)" style="text;html=1;strokeColor=none;fillColor=none;align=center;verticalAlign=middle;whiteSpace=wrap;rounded=0;fontColor=#663CDC;" parent="KhpNlNvxDwqMAziko4fs-1" vertex="1">
          <mxGeometry x="50" y="286" width="70" height="20" as="geometry" />
        </mxCell>
        <mxCell id="OPiwrHlcYEh3rDxegb-4-58" value="Management Services&lt;br&gt;Protocol" style="text;html=1;strokeColor=none;fillColor=none;align=center;verticalAlign=middle;whiteSpace=wrap;rounded=0;fontColor=#663CDC;" parent="KhpNlNvxDwqMAziko4fs-1" vertex="1">
          <mxGeometry x="400" y="290" width="120" height="20" as="geometry" />
        </mxCell>
        <mxCell id="OPiwrHlcYEh3rDxegb-4-59" value="Protocol for Downloading Configuration" style="text;html=1;strokeColor=none;fillColor=none;align=center;verticalAlign=middle;whiteSpace=wrap;rounded=0;fontColor=#663CDC;fontSize=11;" parent="KhpNlNvxDwqMAziko4fs-1" vertex="1">
          <mxGeometry x="530" y="290" width="120" height="20" as="geometry" />
        </mxCell>
        <mxCell id="OPiwrHlcYEh3rDxegb-4-60" value="&lt;font color=&quot;#ffffff&quot;&gt;&lt;span&gt;&lt;br&gt;&lt;/span&gt;&lt;/font&gt;" style="ellipse;whiteSpace=wrap;html=1;aspect=fixed;fillColor=#663CDC;strokeColor=none;gradientDirection=north;" parent="KhpNlNvxDwqMAziko4fs-1" vertex="1">
          <mxGeometry x="109.99999999999997" y="470" width="20" height="20" as="geometry" />
        </mxCell>
        <mxCell id="OPiwrHlcYEh3rDxegb-4-61" value="&lt;font color=&quot;#ffffff&quot;&gt;&lt;span&gt;&lt;br&gt;&lt;/span&gt;&lt;/font&gt;" style="ellipse;whiteSpace=wrap;html=1;aspect=fixed;fillColor=#663CDC;strokeColor=none;gradientDirection=north;" parent="KhpNlNvxDwqMAziko4fs-1" vertex="1">
          <mxGeometry x="189.99999999999997" y="470" width="20" height="20" as="geometry" />
        </mxCell>
        <mxCell id="OPiwrHlcYEh3rDxegb-4-62" value="&lt;font color=&quot;#ffffff&quot;&gt;&lt;span&gt;&lt;br&gt;&lt;/span&gt;&lt;/font&gt;" style="ellipse;whiteSpace=wrap;html=1;aspect=fixed;fillColor=#663CDC;strokeColor=none;gradientDirection=north;" parent="KhpNlNvxDwqMAziko4fs-1" vertex="1">
          <mxGeometry x="270" y="470" width="20" height="20" as="geometry" />
        </mxCell>
        <mxCell id="OPiwrHlcYEh3rDxegb-4-63" value="&lt;font color=&quot;#ffffff&quot;&gt;&lt;span&gt;&lt;br&gt;&lt;/span&gt;&lt;/font&gt;" style="ellipse;whiteSpace=wrap;html=1;aspect=fixed;fillColor=#663CDC;strokeColor=none;gradientDirection=north;" parent="KhpNlNvxDwqMAziko4fs-1" vertex="1">
          <mxGeometry x="350" y="470" width="20" height="20" as="geometry" />
        </mxCell>
        <mxCell id="OPiwrHlcYEh3rDxegb-4-64" value="&lt;font color=&quot;#ffffff&quot;&gt;&lt;span&gt;&lt;br&gt;&lt;/span&gt;&lt;/font&gt;" style="ellipse;whiteSpace=wrap;html=1;aspect=fixed;fillColor=#663CDC;strokeColor=none;gradientDirection=north;" parent="KhpNlNvxDwqMAziko4fs-1" vertex="1">
          <mxGeometry x="430" y="470" width="20" height="20" as="geometry" />
        </mxCell>
        <mxCell id="OPiwrHlcYEh3rDxegb-4-65" value="&lt;font color=&quot;#ffffff&quot;&gt;&lt;span&gt;&lt;br&gt;&lt;/span&gt;&lt;/font&gt;" style="ellipse;whiteSpace=wrap;html=1;aspect=fixed;fillColor=#663CDC;strokeColor=none;gradientDirection=north;" parent="KhpNlNvxDwqMAziko4fs-1" vertex="1">
          <mxGeometry x="510" y="470" width="20" height="20" as="geometry" />
        </mxCell>
        <mxCell id="OPiwrHlcYEh3rDxegb-4-66" value="&lt;font color=&quot;#ffffff&quot;&gt;&lt;span&gt;&lt;br&gt;&lt;/span&gt;&lt;/font&gt;" style="ellipse;whiteSpace=wrap;html=1;aspect=fixed;fillColor=#663CDC;strokeColor=none;gradientDirection=north;" parent="KhpNlNvxDwqMAziko4fs-1" vertex="1">
          <mxGeometry x="590" y="470" width="20" height="20" as="geometry" />
        </mxCell>
        <mxCell id="OPiwrHlcYEh3rDxegb-4-74" value="Message Protocol for REST" style="text;html=1;strokeColor=none;fillColor=none;align=center;verticalAlign=middle;whiteSpace=wrap;rounded=0;fontColor=#663CDC;" parent="KhpNlNvxDwqMAziko4fs-1" vertex="1">
          <mxGeometry x="100" y="510" width="40" height="20" as="geometry" />
        </mxCell>
        <mxCell id="OPiwrHlcYEh3rDxegb-4-75" value="Message Protocol for SOAP" style="text;html=1;strokeColor=none;fillColor=none;align=center;verticalAlign=middle;whiteSpace=wrap;rounded=0;fontColor=#663CDC;" parent="KhpNlNvxDwqMAziko4fs-1" vertex="1">
          <mxGeometry x="180" y="510" width="40" height="20" as="geometry" />
        </mxCell>
        <mxCell id="OPiwrHlcYEh3rDxegb-4-76" value="Download Signed Document" style="text;html=1;strokeColor=none;fillColor=none;align=center;verticalAlign=middle;whiteSpace=wrap;rounded=0;fontColor=#663CDC;" parent="KhpNlNvxDwqMAziko4fs-1" vertex="1">
          <mxGeometry x="340" y="510" width="40" height="20" as="geometry" />
        </mxCell>
        <mxCell id="OPiwrHlcYEh3rDxegb-4-77" value="Environmental Monitoring Protocol" style="text;html=1;strokeColor=none;fillColor=none;align=center;verticalAlign=middle;whiteSpace=wrap;rounded=0;fontColor=#663CDC;" parent="KhpNlNvxDwqMAziko4fs-1" vertex="1">
          <mxGeometry x="420" y="510" width="40" height="20" as="geometry" />
        </mxCell>
        <mxCell id="OPiwrHlcYEh3rDxegb-4-78" value="Operational Monitoring Protocol" style="text;html=1;strokeColor=none;fillColor=none;align=center;verticalAlign=middle;whiteSpace=wrap;rounded=0;fontColor=#663CDC;" parent="KhpNlNvxDwqMAziko4fs-1" vertex="1">
          <mxGeometry x="500" y="510" width="40" height="20" as="geometry" />
        </mxCell>
        <mxCell id="OPiwrHlcYEh3rDxegb-4-80" value="Service Metadata Protocol" style="text;html=1;strokeColor=none;fillColor=none;align=center;verticalAlign=middle;whiteSpace=wrap;rounded=0;fontColor=#663CDC;" parent="KhpNlNvxDwqMAziko4fs-1" vertex="1">
          <mxGeometry x="260" y="510" width="40" height="20" as="geometry" />
        </mxCell>
        <mxCell id="OPiwrHlcYEh3rDxegb-4-82" value="&lt;font color=&quot;#ffffff&quot;&gt;&lt;span&gt;&lt;br&gt;&lt;/span&gt;&lt;/font&gt;" style="ellipse;whiteSpace=wrap;html=1;aspect=fixed;fillColor=#663CDC;strokeColor=none;gradientDirection=north;" parent="KhpNlNvxDwqMAziko4fs-1" vertex="1">
          <mxGeometry x="660" y="470" width="20" height="20" as="geometry" />
        </mxCell>
        <mxCell id="OPiwrHlcYEh3rDxegb-4-83" value="Management REST&lt;br&gt;API" style="text;html=1;strokeColor=none;fillColor=none;align=center;verticalAlign=middle;whiteSpace=wrap;rounded=0;fontColor=#663CDC;" parent="KhpNlNvxDwqMAziko4fs-1" vertex="1">
          <mxGeometry x="580" y="510" width="40" height="20" as="geometry" />
        </mxCell>
        <mxCell id="OPiwrHlcYEh3rDxegb-4-85" value="UI" style="text;html=1;strokeColor=none;fillColor=none;align=center;verticalAlign=middle;whiteSpace=wrap;rounded=0;fontColor=#663CDC;" parent="KhpNlNvxDwqMAziko4fs-1" vertex="1">
          <mxGeometry x="650" y="500" width="40" height="20" as="geometry" />
        </mxCell>
        <mxCell id="OPiwrHlcYEh3rDxegb-4-86" style="edgeStyle=orthogonalEdgeStyle;rounded=0;orthogonalLoop=1;jettySize=auto;html=1;entryX=1;entryY=0.5;entryDx=0;entryDy=0;endArrow=classic;endFill=1;startArrow=none;startFill=0;dashed=1;" parent="KhpNlNvxDwqMAziko4fs-1" target="OPiwrHlcYEh3rDxegb-4-66" edge="1">
          <mxGeometry relative="1" as="geometry">
            <mxPoint x="660" y="480" as="sourcePoint" />
            <mxPoint x="720.0500000000001" y="470.0000000000001" as="targetPoint" />
          </mxGeometry>
        </mxCell>
        <mxCell id="OPiwrHlcYEh3rDxegb-4-87" value="&lt;font color=&quot;#ffffff&quot;&gt;&lt;span&gt;&lt;br&gt;&lt;/span&gt;&lt;/font&gt;" style="ellipse;whiteSpace=wrap;html=1;aspect=fixed;fillColor=#663CDC;strokeColor=none;gradientDirection=north;" parent="KhpNlNvxDwqMAziko4fs-1" vertex="1">
          <mxGeometry x="510" y="150" width="20" height="20" as="geometry" />
        </mxCell>
        <mxCell id="OPiwrHlcYEh3rDxegb-4-88" style="edgeStyle=orthogonalEdgeStyle;rounded=0;orthogonalLoop=1;jettySize=auto;html=1;exitX=0.25;exitY=1;exitDx=0;exitDy=0;entryX=0.5;entryY=0;entryDx=0;entryDy=0;endArrow=none;endFill=0;" parent="KhpNlNvxDwqMAziko4fs-1" edge="1">
          <mxGeometry relative="1" as="geometry">
            <mxPoint x="520" y="170.24375000000032" as="sourcePoint" />
            <mxPoint x="520" y="200.99999999999977" as="targetPoint" />
          </mxGeometry>
        </mxCell>
        <mxCell id="OPiwrHlcYEh3rDxegb-4-89" value="UI" style="text;html=1;strokeColor=none;fillColor=none;align=center;verticalAlign=middle;whiteSpace=wrap;rounded=0;fontColor=#663CDC;" parent="KhpNlNvxDwqMAziko4fs-1" vertex="1">
          <mxGeometry x="500" y="130" width="40" height="20" as="geometry" />
        </mxCell>
        <mxCell id="OPiwrHlcYEh3rDxegb-4-93" style="edgeStyle=orthogonalEdgeStyle;rounded=0;orthogonalLoop=1;jettySize=auto;html=1;exitX=0.5;exitY=0;exitDx=0;exitDy=0;dashed=1;startArrow=none;startFill=0;endArrow=classic;endFill=1;fontColor=#663CDC;" parent="KhpNlNvxDwqMAziko4fs-1" source="OPiwrHlcYEh3rDxegb-4-91" edge="1">
          <mxGeometry relative="1" as="geometry">
            <mxPoint x="200" y="550" as="targetPoint" />
          </mxGeometry>
        </mxCell>
        <mxCell id="OPiwrHlcYEh3rDxegb-4-94" style="edgeStyle=orthogonalEdgeStyle;rounded=0;orthogonalLoop=1;jettySize=auto;html=1;exitX=0.5;exitY=0;exitDx=0;exitDy=0;dashed=1;startArrow=none;startFill=0;endArrow=classic;endFill=1;fontColor=#663CDC;" parent="KhpNlNvxDwqMAziko4fs-1" source="OPiwrHlcYEh3rDxegb-4-91" edge="1">
          <mxGeometry relative="1" as="geometry">
            <mxPoint x="120" y="550" as="targetPoint" />
          </mxGeometry>
        </mxCell>
        <mxCell id="OPiwrHlcYEh3rDxegb-4-96" style="edgeStyle=orthogonalEdgeStyle;rounded=0;orthogonalLoop=1;jettySize=auto;html=1;exitX=0.5;exitY=0;exitDx=0;exitDy=0;dashed=1;startArrow=none;startFill=0;endArrow=classic;endFill=1;fontColor=#663CDC;" parent="KhpNlNvxDwqMAziko4fs-1" source="OPiwrHlcYEh3rDxegb-4-91" edge="1">
          <mxGeometry relative="1" as="geometry">
            <mxPoint x="280" y="550" as="targetPoint" />
          </mxGeometry>
        </mxCell>
        <mxCell id="OPiwrHlcYEh3rDxegb-4-97" style="edgeStyle=orthogonalEdgeStyle;rounded=0;orthogonalLoop=1;jettySize=auto;html=1;exitX=0.5;exitY=0;exitDx=0;exitDy=0;dashed=1;startArrow=none;startFill=0;endArrow=classic;endFill=1;fontColor=#663CDC;" parent="KhpNlNvxDwqMAziko4fs-1" source="OPiwrHlcYEh3rDxegb-4-91" edge="1">
          <mxGeometry relative="1" as="geometry">
            <mxPoint x="360" y="550" as="targetPoint" />
          </mxGeometry>
        </mxCell>
        <mxCell id="OPiwrHlcYEh3rDxegb-4-91" value="&lt;font color=&quot;#ffffff&quot;&gt;&lt;br&gt;Information&lt;br&gt;System&lt;/font&gt;" style="ellipse;whiteSpace=wrap;html=1;aspect=fixed;strokeWidth=2;strokeColor=none;fontColor=#663CDC;fillColor=#948DA8;" parent="KhpNlNvxDwqMAziko4fs-1" vertex="1">
          <mxGeometry x="120" y="599.9999999999999" width="80" height="80" as="geometry" />
        </mxCell>
        <mxCell id="OPiwrHlcYEh3rDxegb-4-92" value="" style="shape=image;verticalLabelPosition=bottom;labelBackgroundColor=#ffffff;verticalAlign=top;aspect=fixed;imageAspect=0;image=data:image/svg+xml,PHN2ZyB4bWxucz0iaHR0cDovL3d3dy53My5vcmcvMjAwMC9zdmciIHhtbG5zOnhsaW5rPSJodHRwOi8vd3d3LnczLm9yZy8xOTk5L3hsaW5rIiB3aWR0aD0iMThweCIgaGVpZ2h0PSIyMnB4IiB2aWV3Qm94PSIwIDAgMTggMjIiIHZlcnNpb249IjEuMSI+JiN4YTsgICAgPCEtLSBHZW5lcmF0b3I6IFNrZXRjaCA1OCAoODQ2NjMpIC0gaHR0cHM6Ly9za2V0Y2guY29tIC0tPiYjeGE7ICAgIDx0aXRsZT5saWJyYXJ5LXNoZWx2ZXMgY29weSAzPC90aXRsZT4mI3hhOyAgICA8ZGVzYz5DcmVhdGVkIHdpdGggU2tldGNoLjwvZGVzYz4mI3hhOyAgICA8ZyBpZD0iU3R5bGVndWlkZS0mYW1wOy1UeXBlcGFnZXMiIHN0cm9rZT0ibm9uZSIgc3Ryb2tlLXdpZHRoPSIxIiBmaWxsPSJub25lIiBmaWxsLXJ1bGU9ImV2ZW5vZGQiPiYjeGE7ICAgICAgICA8ZyBpZD0iSWNvbnMiIHRyYW5zZm9ybT0idHJhbnNsYXRlKC03MzguMDAwMDAwLCAtMTE2Ny4wMDAwMDApIiBmaWxsPSIjRkZGRkZGIj4mI3hhOyAgICAgICAgICAgIDxnIGlkPSJsaWJyYXJ5LXNoZWx2ZXMtY29weS0zIiB0cmFuc2Zvcm09InRyYW5zbGF0ZSg3MzguMDAwMDAwLCAxMTY3LjAwMDAwMCkiPiYjeGE7ICAgICAgICAgICAgICAgIDxwYXRoIGQ9Ik0xNi41LDggTDE2LjUsMC41IEwxMy41LDAuNSBMMTMuNSw4IEwxMC41LDggTDEwLjUsMC41IEw3LjUsMC41IEw3LjUsOCBMNC41LDggTDQuNSwwLjUgTDEuNjUsMC41IEwxLjY1LDggTDAsOCBMMCw5LjUgTDE4LDkuNSBMMTgsOCBMMTYuNSw4IE0xNi41LDEyLjUgTDEzLjUsMTIuNSBMMTMuNSwyMCBMMTAuNSwyMCBMMTAuNSwxMi41IEw3LjUsMTIuNSBMNy41LDIwIEw0LjUsMjAgTDQuNSwxMi41IEwxLjY1LDEyLjUgTDEuNjUsMjAgTDAsMjAgTDAsMjEuNSBMMTgsMjEuNSBMMTgsMjAgTDE2LjUsMjAgTDE2LjUsMTIuNSBaIiBpZD0iU2hhcGUiLz4mI3hhOyAgICAgICAgICAgIDwvZz4mI3hhOyAgICAgICAgPC9nPiYjeGE7ICAgIDwvZz4mI3hhOzwvc3ZnPg==;imageBackground=none;fontColor=#663CDC;" parent="KhpNlNvxDwqMAziko4fs-1" vertex="1">
          <mxGeometry x="151" y="610.1099999999998" width="18" height="22" as="geometry" />
        </mxCell>
        <mxCell id="nSrNMcFc9yxEUsw325EZ-0" value="" style="group;fontColor=#663CDC;" parent="KhpNlNvxDwqMAziko4fs-1" vertex="1" connectable="0">
          <mxGeometry x="339" y="199.99999999999977" width="80" height="79.24374999999998" as="geometry" />
        </mxCell>
        <mxCell id="nSrNMcFc9yxEUsw325EZ-1" value="&lt;font color=&quot;#663cdc&quot;&gt;&amp;nbsp; &amp;nbsp; &amp;nbsp; &amp;nbsp; &amp;nbsp; &amp;nbsp; Security&lt;br&gt;Server&lt;/font&gt;" style="rounded=1;whiteSpace=wrap;html=1;strokeColor=#663CDC;strokeWidth=2;fillColor=none;" parent="nSrNMcFc9yxEUsw325EZ-0" vertex="1">
          <mxGeometry width="80" height="79.24375" as="geometry" />
        </mxCell>
        <mxCell id="nSrNMcFc9yxEUsw325EZ-2" value="" style="shape=image;verticalLabelPosition=bottom;labelBackgroundColor=#ffffff;verticalAlign=top;aspect=fixed;imageAspect=0;image=data:image/svg+xml,PHN2ZyB4bWxucz0iaHR0cDovL3d3dy53My5vcmcvMjAwMC9zdmciIHhtbG5zOnhsaW5rPSJodHRwOi8vd3d3LnczLm9yZy8xOTk5L3hsaW5rIiB3aWR0aD0iMjBweCIgaGVpZ2h0PSIxOHB4IiB2aWV3Qm94PSIwIDAgMjAgMTgiIHZlcnNpb249IjEuMSI+JiN4YTsgICAgPCEtLSBHZW5lcmF0b3I6IFNrZXRjaCA1OCAoODQ2NjMpIC0gaHR0cHM6Ly9za2V0Y2guY29tIC0tPiYjeGE7ICAgIDx0aXRsZT5Db21iaW5lZCBTaGFwZTwvdGl0bGU+JiN4YTsgICAgPGRlc2M+Q3JlYXRlZCB3aXRoIFNrZXRjaC48L2Rlc2M+JiN4YTsgICAgPGcgaWQ9IlN0eWxlZ3VpZGUtJmFtcDstVHlwZXBhZ2VzIiBzdHJva2U9Im5vbmUiIHN0cm9rZS13aWR0aD0iMSIgZmlsbD0ibm9uZSIgZmlsbC1ydWxlPSJldmVub2RkIj4mI3hhOyAgICAgICAgPGcgaWQ9Ikljb25zIiB0cmFuc2Zvcm09InRyYW5zbGF0ZSgtODg4LjAwMDAwMCwgLTQ3Ny4wMDAwMDApIiBmaWxsPSIjNjYzQ0RDIj4mI3hhOyAgICAgICAgICAgIDxwYXRoIGQ9Ik04OTIsNDgzIEw4OTQsNDgzIEw4OTQsNDkxIEw4OTcsNDkxIEw4OTcsNDgzIEw4OTksNDgzIEw4OTksNDkxIEw5MDIsNDkxIEw5MDIsNDgzIEw5MDQsNDgzIEw5MDQsNDkxIEw5MDYsNDkxIEw5MDYsNDkzIEw5MDgsNDkzIEw5MDgsNDk1IEw4ODgsNDk1IEw4ODgsNDkzIEw4OTAsNDkzIEw4OTAsNDkxIEw4OTIsNDkxIEw4OTIsNDgzIFogTTg5OCw0NzcgQzkwMS44MjQzMzQsNDc3IDkwNS4wNTg3NzcsNDc5LjUyNTYyMyA5MDYuMTI2Mzc1LDQ4Mi45OTk5MTQgTDg4OS44NzM2MjUsNDgyLjk5OTkxNCBDODkwLjk0MTIyMyw0NzkuNTI1NjIzIDg5NC4xNzU2NjYsNDc3IDg5OCw0NzcgWiIgaWQ9IkNvbWJpbmVkLVNoYXBlIi8+JiN4YTsgICAgICAgIDwvZz4mI3hhOyAgICA8L2c+JiN4YTs8L3N2Zz4=;" parent="nSrNMcFc9yxEUsw325EZ-0" vertex="1">
          <mxGeometry x="30" y="13.079214843749924" width="20" height="18" as="geometry" />
        </mxCell>
        <mxCell id="nSrNMcFc9yxEUsw325EZ-4" style="edgeStyle=orthogonalEdgeStyle;rounded=0;orthogonalLoop=1;jettySize=auto;html=1;exitX=0.25;exitY=1;exitDx=0;exitDy=0;entryX=0.5;entryY=0;entryDx=0;entryDy=0;endArrow=none;endFill=0;" parent="KhpNlNvxDwqMAziko4fs-1" edge="1">
          <mxGeometry relative="1" as="geometry">
            <mxPoint x="399.99999999999983" y="279.0037500000002" as="sourcePoint" />
            <mxPoint x="399.99999999999983" y="309.7599999999999" as="targetPoint" />
          </mxGeometry>
        </mxCell>
        <mxCell id="nSrNMcFc9yxEUsw325EZ-6" style="edgeStyle=orthogonalEdgeStyle;rounded=0;orthogonalLoop=1;jettySize=auto;html=1;exitX=0.703;exitY=0;exitDx=0;exitDy=0;entryX=0.5;entryY=1;entryDx=0;entryDy=0;endArrow=none;endFill=0;exitPerimeter=0;startArrow=classic;startFill=1;dashed=1;" parent="KhpNlNvxDwqMAziko4fs-1" edge="1">
          <mxGeometry relative="1" as="geometry">
            <mxPoint x="360.0005000000001" y="309.0000000000001" as="sourcePoint" />
            <mxPoint x="360.04999999999995" y="279" as="targetPoint" />
          </mxGeometry>
        </mxCell>
        <mxCell id="eF7TxYfHRKkQZrEWdHNv-2" value="" style="shape=image;verticalLabelPosition=bottom;labelBackgroundColor=#ffffff;verticalAlign=top;aspect=fixed;imageAspect=0;image=data:image/svg+xml,PHN2ZyB4bWxucz0iaHR0cDovL3d3dy53My5vcmcvMjAwMC9zdmciIHhtbG5zOnhsaW5rPSJodHRwOi8vd3d3LnczLm9yZy8xOTk5L3hsaW5rIiB3aWR0aD0iMjJweCIgaGVpZ2h0PSIyMXB4IiB2aWV3Qm94PSIwIDAgMjIgMjEiIHZlcnNpb249IjEuMSI+JiN4YTsgICAgPCEtLSBHZW5lcmF0b3I6IFNrZXRjaCA1OCAoODQ2NjMpIC0gaHR0cHM6Ly9za2V0Y2guY29tIC0tPiYjeGE7ICAgIDx0aXRsZT5TaGFwZSBDb3B5IDQ8L3RpdGxlPiYjeGE7ICAgIDxkZXNjPkNyZWF0ZWQgd2l0aCBTa2V0Y2guPC9kZXNjPiYjeGE7ICAgIDxnIGlkPSJTdHlsZWd1aWRlLSZhbXA7LVR5cGVwYWdlcyIgc3Ryb2tlPSJub25lIiBzdHJva2Utd2lkdGg9IjEiIGZpbGw9Im5vbmUiIGZpbGwtcnVsZT0iZXZlbm9kZCI+JiN4YTsgICAgICAgIDxnIGlkPSJJY29ucyIgdHJhbnNmb3JtPSJ0cmFuc2xhdGUoLTYxNy4wMDAwMDAsIC04MDMuMDAwMDAwKSIgZmlsbD0iIzk0OERBOCI+JiN4YTsgICAgICAgICAgICA8cGF0aCBkPSJNNjI4LDgwMyBMNjI2LjAyMTQ4NCw4MDQuOTEyMTA5IEw2MjMuMjk4ODI4LDgwNC41MjczNDQgTDYyMi44MjIyNjYsODA3LjIzODI4MSBMNjIwLjM5MjU3OCw4MDguNTI3MzQ0IEw2MjEuNTk5NjA5LDgxMSBMNjIwLjM5MjU3OCw4MTMuNDcyNjU2IEw2MjIuODIyMjY2LDgxNC43NjE3MTkgTDYyMy4yOTg4MjgsODE3LjQ3MjY1NiBMNjI2LjAyMzQzOCw4MTcuMDg3ODkxIEw2MjgsODE5IEw2MjkuOTc4NTE2LDgxNy4wODc4OTEgTDYzMi43MDMxMjUsODE3LjQ3MjY1NiBMNjMzLjE3NzczNCw4MTQuNzYxNzE5IEw2MzUuNjA5Mzc1LDgxMy40NzI2NTYgTDYzNC40MDAzOTEsODExIEw2MzUuNjA3NDIyLDgwOC41MjczNDQgTDYzMy4xNzc3MzQsODA3LjIzODI4MSBMNjMyLjcwMTE3Miw4MDQuNTI3MzQ0IEw2MjkuOTc2NTYyLDgwNC45MTIxMDkgTDYyOCw4MDMgWiBNNjIwLjk4MjQyMiw4MTYuMDE3NTc4IEw2MTcsODIwIEw2MjAsODIxIEw2MjEsODI0IEw2MjUuNTg5ODQ0LDgxOS40MTAxNTYgTDYyNS4zNDM3NSw4MTkuMTc1NzgxIEw2MjQuMTE3MTg4LDgxOS4zNDc2NTYgQzYyMy45OTcxODcsODE5LjM2NDY1NiA2MjMuODc5NzE5LDgxOS4zNzMwNDcgNjIzLjc2MTcxOSw4MTkuMzczMDQ3IEM2MjIuNTI1NzE5LDgxOS4zNzMwNDcgNjIxLjQ3Mjc2Niw4MTguNDg4NDg0IDYyMS4yNTk3NjYsODE3LjI3MTQ4NCBMNjIxLjA0Njg3NSw4MTYuMDUyNzM0IEw2MjAuOTgyNDIyLDgxNi4wMTc1NzggWiBNNjM1LjAxNzU3OCw4MTYuMDE3NTc4IEw2MzQuOTUzMTI1LDgxNi4wNTI3MzQgTDYzNC43NDAyMzQsODE3LjI3MTQ4NCBDNjM0LjUyNjIzNCw4MTguNDg5NDg0IDYzMy40NzQyODEsODE5LjM3MzA0NyA2MzIuMjM4MjgxLDgxOS4zNzMwNDcgQzYzMi4xMjAyODEsODE5LjM3MzA0NyA2MzIuMDAyODEzLDgxOS4zNjQ2NTYgNjMxLjg4MjgxMiw4MTkuMzQ3NjU2IEw2MzAuNjU2MjUsODE5LjE3NTc4MSBMNjMwLjQxMDE1Niw4MTkuNDEyMTA5IEw2MzUsODI0IEw2MzYsODIxIEw2MzksODIwIEw2MzUuMDE3NTc4LDgxNi4wMTc1NzggWiIgaWQ9IlNoYXBlLUNvcHktNCIvPiYjeGE7ICAgICAgICA8L2c+JiN4YTsgICAgPC9nPiYjeGE7PC9zdmc+;strokeColor=#948DA8;fillColor=#948DA8;fontColor=#948DA8;" parent="KhpNlNvxDwqMAziko4fs-1" vertex="1">
          <mxGeometry x="229" y="210.73000000000002" width="22" height="21" as="geometry" />
        </mxCell>
      </root>
    </mxGraphModel>
  </diagram>
</mxfile>
